<svg width="16" height="16" viewBox="0 0 16 16" fill="none" xmlns="http://www.w3.org/2000/svg">
<path d="M8 14.6667C11.3137 14.6667 14 11.9805 14 8.66675C14 5.35304 11.3137 2.66675 8 2.66675C4.68629 2.66675 2 5.35304 2 8.66675C2 11.9805 4.68629 14.6667 8 14.6667Z" stroke="black" stroke-width="1.5" stroke-linecap="round"/>
<path d="M3.33333 12.6667L2 14.0001M12.6667 12.6667L14 14.0001" stroke="black" stroke-width="1.5" stroke-linecap="round" stroke-linejoin="round"/>
<path d="M12.6666 2.3798L13.0636 2.1813C13.6272 1.89955 13.8388 1.93179 14.2868 2.3798C14.7348 2.8278 14.7671 3.03949 14.4853 3.603L14.2868 4M3.33331 2.3798L2.93631 2.1813C2.37281 1.89955 2.16111 1.93179 1.71311 2.3798C1.26511 2.8278 1.23286 3.03949 1.51461 3.603L1.71311 4" stroke="black" stroke-width="1.5" stroke-linecap="round"/>
<path d="M8 6.33325V8.99992L9.33333 10.3333" stroke="black" stroke-width="1.5" stroke-linecap="round" stroke-linejoin="round"/>
<path d="M8 2.33325V1.33325" stroke="black" stroke-width="1.5" stroke-linecap="round" stroke-linejoin="round"/>
<path d="M6.66669 1.33325H9.33335" stroke="black" stroke-width="1.5" stroke-linecap="round" stroke-linejoin="round"/>
</svg>
