<svg width="14" height="14" viewBox="0 0 14 14" fill="none" xmlns="http://www.w3.org/2000/svg">
<path fill-rule="evenodd" clip-rule="evenodd" d="M6.99967 0.333496C10.6757 0.333496 13.6663 3.32416 13.6663 7.00016C13.6663 10.6762 10.6757 13.6668 6.99967 13.6668C3.32367 13.6668 0.333008 10.6762 0.333008 7.00016C0.333008 3.32416 3.32367 0.333496 6.99967 0.333496ZM6.99967 1.3335C3.87501 1.3335 1.33301 3.8755 1.33301 7.00016C1.33301 10.1248 3.87501 12.6668 6.99967 12.6668C10.1243 12.6668 12.6663 10.1248 12.6663 7.00016C12.6663 3.8755 10.1243 1.3335 6.99967 1.3335ZM6.39141 4.33196L8.71541 6.64596C8.80941 6.73996 8.86207 6.8673 8.86207 6.99996C8.86207 7.1333 8.80941 7.26063 8.71541 7.35463L6.39141 9.66796C6.29407 9.7653 6.16607 9.81396 6.03874 9.81396C5.91074 9.81396 5.78207 9.7653 5.68474 9.66663C5.49007 9.47063 5.49074 9.15463 5.68607 8.95996L7.65407 6.99996L5.68607 5.04063C5.49074 4.84596 5.49007 4.5293 5.68474 4.3333C5.87941 4.13663 6.19541 4.13796 6.39141 4.33196Z" fill="#0019FF"/>
</svg>
