<svg width="40" height="40" viewBox="0 0 40 40" fill="none" xmlns="http://www.w3.org/2000/svg">
<path d="M17.1429 0.00546227C17.71 0.00444676 18.277 0.00366584 18.8441 0.00318762C19.1074 0.00295814 19.3706 0.00264668 19.6339 0.00215034C19.8878 0.00167466 20.1417 0.00141109 20.3956 0.00129699C20.4927 0.00121563 20.5897 0.00105678 20.6868 0.00082053C20.8223 0.000503618 20.9578 0.000457877 21.0934 0.000478301C21.1541 0.000241542 21.1541 0.000241542 21.216 0C21.2712 9.05255e-05 21.2712 9.05258e-05 21.3275 0.00018288C21.3596 0.000142412 21.3917 0.000101943 21.4247 6.02484e-05C21.5036 0.00546227 21.5036 0.00546227 21.5908 0.0493641C21.6924 0.0628823 21.7941 0.071708 21.8962 0.0809185C21.9832 0.0932659 21.9832 0.0932659 22.0268 0.137168C22.1264 0.158898 22.2265 0.178661 22.3266 0.197533C22.536 0.237642 22.7405 0.282944 22.9453 0.342957C23.109 0.390184 23.2505 0.4146 23.4223 0.400578C23.4366 0.458529 23.451 0.516479 23.4659 0.576186C23.5045 0.564415 23.5432 0.552643 23.5831 0.540515C23.7275 0.532284 23.7275 0.532284 23.8474 0.603624C24.0575 0.845033 24.044 1.28178 24.0327 1.58593C24.0253 1.61355 24.0179 1.64117 24.0102 1.66963C23.9872 1.76976 23.9886 1.84958 23.9959 1.95189C23.9994 2.00571 23.9994 2.00571 24.0029 2.06062C24.0082 2.13527 24.0136 2.20993 24.0189 2.28458C24.0318 2.48567 24.0259 2.65979 23.9891 2.85908C24.0035 2.88805 24.0179 2.91703 24.0327 2.94688C24.0497 3.24934 24.028 3.55556 24.0137 3.85785C24.0111 3.91625 24.0111 3.91625 24.0085 3.97583C23.9982 4.19907 23.9842 4.42165 23.9672 4.64448C23.9395 5.02495 23.9307 5.4056 23.9214 5.78686C23.8952 6.83927 23.8952 6.83927 23.835 7.07828C23.8128 7.16929 23.8118 7.24507 23.8151 7.33861C23.8267 7.83087 23.7964 8.30475 23.7367 8.79335C23.6809 9.26259 23.6508 9.73175 23.6249 10.2034C23.6096 10.4791 23.5924 10.7515 23.5531 11.0248C23.7482 10.9613 23.8816 10.8518 24.0327 10.7175C24.0571 10.6975 24.0814 10.6775 24.1065 10.657C24.2789 10.5144 24.422 10.3598 24.5662 10.1888C24.6628 10.081 24.7681 9.98922 24.8797 9.8976C24.9504 9.83786 25.0149 9.77432 25.0793 9.70776C25.0793 9.73674 25.0793 9.76571 25.0793 9.79556C25.1081 9.79556 25.1369 9.79556 25.1665 9.79556C25.1728 9.76749 25.1791 9.73942 25.1856 9.7105C25.2186 9.58856 25.2963 9.53315 25.3845 9.44435C25.4133 9.45884 25.4421 9.47332 25.4718 9.48825C25.4574 9.4303 25.443 9.37235 25.4281 9.31264C25.4569 9.31264 25.4857 9.31264 25.5154 9.31264C25.5154 9.28367 25.5154 9.25469 25.5154 9.22484C25.6161 9.19586 25.7168 9.16689 25.8206 9.13704C25.8254 9.07914 25.8254 9.07914 25.8303 9.02008C25.871 8.84436 25.9359 8.76834 26.0577 8.63765C26.1102 8.5801 26.1102 8.5801 26.1638 8.52138C26.2567 8.43461 26.2567 8.43461 26.3439 8.43461C26.3439 8.40563 26.3439 8.37666 26.3439 8.3468C26.4158 8.33232 26.4878 8.31783 26.5619 8.3029C26.5637 8.27121 26.5655 8.23952 26.5674 8.20687C26.6117 8.06352 26.6747 8.01652 26.791 7.92751C26.9081 7.8297 27.0013 7.71325 27.0998 7.59704C27.1916 7.49029 27.2899 7.3916 27.3904 7.29316C27.4219 7.25966 27.4534 7.22616 27.4858 7.19164C27.5649 7.11755 27.5649 7.11755 27.6521 7.11755C27.662 7.08677 27.6719 7.05598 27.6821 7.02426C27.7941 6.77706 27.9565 6.63196 28.1672 6.47C28.3712 6.31158 28.5206 6.13653 28.6727 5.92809C28.6957 5.90047 28.7186 5.87286 28.7422 5.8444C28.771 5.8444 28.7998 5.8444 28.8294 5.8444C28.8393 5.81995 28.8492 5.79551 28.8594 5.77032C28.9327 5.64039 29.0286 5.55359 29.1347 5.44929C29.1723 5.40204 29.2096 5.35447 29.2464 5.3066C29.3818 5.15281 29.3818 5.15281 29.5271 5.14197C29.5271 5.09851 29.5271 5.05505 29.5271 5.01027C29.5541 5.00031 29.5811 4.99035 29.6089 4.98008C29.7109 4.92988 29.7109 4.92988 29.7397 4.8182C29.8066 4.66104 29.9088 4.61643 30.0504 4.52735C30.0792 4.48388 30.108 4.44042 30.1376 4.39564C30.1664 4.39564 30.1952 4.39564 30.2248 4.39564C30.2248 4.36667 30.2248 4.33769 30.2248 4.30784C30.2956 4.23277 30.3685 4.15974 30.4429 4.08833C30.4793 4.04894 30.4793 4.04894 30.5165 4.00876C30.5737 3.95662 30.5737 3.95662 30.6609 3.95662C30.6609 3.91316 30.6609 3.8697 30.6609 3.82492C30.7597 3.73677 30.7597 3.73677 30.8898 3.64382C30.9323 3.61292 30.9748 3.58203 31.0186 3.55019C31.1231 3.48467 31.1936 3.44255 31.315 3.4298C31.3597 3.47262 31.403 3.51682 31.4458 3.56151C31.5205 3.59273 31.5953 3.6239 31.6703 3.65428C31.8062 3.71978 31.9038 3.80838 32.0127 3.91272C32.0127 3.9417 32.0127 3.97067 32.0127 4.00053C32.0813 4.06171 32.1527 4.11981 32.2253 4.17613C32.4433 4.34618 32.4433 4.34618 32.536 4.43954C32.536 4.49749 32.536 4.55544 32.536 4.61515C32.5693 4.62511 32.6025 4.63507 32.6368 4.64533C32.7817 4.71655 32.8202 4.77524 32.8848 4.92246C32.893 5.04594 32.893 5.04594 32.8848 5.14197C32.9928 5.1637 32.9928 5.1637 33.1029 5.18587C33.1029 5.22934 33.1029 5.2728 33.1029 5.31758C33.1287 5.32171 33.1546 5.32584 33.1812 5.3301C33.2987 5.36848 33.3411 5.41711 33.419 5.51239C33.4417 5.5395 33.4644 5.56661 33.4878 5.59454C33.5389 5.66879 33.5389 5.66879 33.5389 5.7566C33.5821 5.77109 33.6253 5.78557 33.6698 5.8005C33.6841 5.82947 33.6985 5.85845 33.7134 5.8883C33.7565 5.91728 33.7997 5.94625 33.8442 5.97611C33.917 6.07489 33.9641 6.17173 34.0186 6.28342C34.0042 6.32688 33.9898 6.37035 33.975 6.41512C34.0613 6.4441 34.1477 6.47307 34.2366 6.50293C34.2366 6.56088 34.2366 6.61883 34.2366 6.67854C34.2699 6.68397 34.3032 6.6894 34.3375 6.695C34.4547 6.72244 34.4547 6.72244 34.5855 6.81024C34.6161 6.88277 34.6452 6.95596 34.6727 7.02975C34.7015 7.05872 34.7303 7.0877 34.7599 7.11755C34.7653 7.16102 34.7707 7.20448 34.7763 7.24926C34.7853 7.29272 34.7943 7.33618 34.8035 7.38096C34.8886 7.43476 34.8886 7.43476 34.9779 7.46877C34.9923 7.51223 35.0067 7.55569 35.0216 7.60047C35.0647 7.61496 35.1079 7.62945 35.1524 7.64437C35.138 7.67335 35.1236 7.70233 35.1088 7.73218C35.1375 7.73218 35.1663 7.73218 35.196 7.73218C35.2832 7.94071 35.2832 7.94071 35.2832 8.03949C35.312 8.05398 35.3408 8.06847 35.3704 8.08339C35.383 8.11146 35.3956 8.13953 35.4086 8.16845C35.4681 8.27844 35.5211 8.2964 35.632 8.3468C35.5868 8.73695 35.3971 8.97128 35.1524 9.26874C35.1225 9.30558 35.0926 9.34242 35.0618 9.38038C34.9156 9.555 34.9156 9.555 34.8471 9.61996C34.8183 9.61996 34.7896 9.61996 34.7599 9.61996C34.7599 9.64893 34.7599 9.67791 34.7599 9.70776C34.7311 9.70776 34.7024 9.70776 34.6727 9.70776C34.6628 9.73221 34.6529 9.75666 34.6427 9.78184C34.5696 9.91155 34.4733 9.99887 34.3675 10.1029C34.3369 10.1436 34.3063 10.1844 34.2748 10.2263C34.2478 10.258 34.2208 10.2897 34.193 10.3224C34.1499 10.3224 34.1067 10.3224 34.0622 10.3224C34.0505 10.3568 34.0388 10.3912 34.0268 10.4267C33.975 10.5419 33.975 10.5419 33.8442 10.6297C33.8226 10.6677 33.801 10.7058 33.7788 10.7449C33.7464 10.7966 33.7464 10.7966 33.7134 10.8492C33.6702 10.8492 33.627 10.8492 33.5825 10.8492C33.5825 10.8927 33.5825 10.9361 33.5825 10.9809C33.5538 10.9809 33.525 10.9809 33.4953 10.9809C33.4854 11.0054 33.4755 11.0298 33.4653 11.055C33.3918 11.1854 33.2978 11.2726 33.1901 11.376C33.0606 11.5029 32.9394 11.6329 32.8222 11.7711C32.6943 11.9202 32.5555 12.0401 32.4052 12.1663C32.2578 12.3246 32.1208 12.4914 31.9855 12.6602C31.8859 12.7762 31.7846 12.8637 31.6639 12.9565C31.5601 13.0497 31.535 13.0823 31.4894 13.2199C31.404 13.2911 31.3142 13.3522 31.2223 13.4147C31.1365 13.4768 31.1365 13.4768 31.1024 13.5656C31.0271 13.7088 30.9202 13.7814 30.7917 13.8784C30.763 13.8784 30.7342 13.8784 30.7045 13.8784C30.6937 13.9056 30.6829 13.9328 30.6718 13.9607C30.607 14.0718 30.5547 14.0856 30.4429 14.1418C30.4314 14.1664 30.4198 14.191 30.408 14.2163C30.3362 14.3551 30.2346 14.4618 30.1295 14.5754C30.108 14.5986 30.0866 14.6219 30.0646 14.6459C29.9092 14.8129 29.7516 14.9683 29.5708 15.1077C29.542 15.1077 29.5132 15.1077 29.4835 15.1077C29.4745 15.1321 29.4656 15.1566 29.4563 15.1818C29.3889 15.2959 29.306 15.3644 29.2035 15.4465C29.0521 15.5703 28.9247 15.711 28.8049 15.865C28.6695 16.0188 28.6695 16.0188 28.5242 16.0296C28.5242 16.0731 28.5242 16.1165 28.5242 16.1613C28.499 16.1713 28.4738 16.1812 28.4479 16.1915C28.3405 16.2464 28.3405 16.2464 28.2598 16.3644C28.232 16.3988 28.2041 16.4332 28.1753 16.4686C28.1322 16.4686 28.089 16.4686 28.0445 16.4686C28.0407 16.4942 28.0368 16.5197 28.0328 16.546C27.9926 16.6699 27.9343 16.7229 27.8401 16.8116C27.7207 16.9267 27.6098 17.0425 27.5049 17.1711C27.4671 17.2145 27.4294 17.258 27.3904 17.3028C27.3617 17.3028 27.3329 17.3028 27.3032 17.3028C27.2888 17.3462 27.2744 17.3897 27.2596 17.4345C27.2164 17.4345 27.1733 17.4345 27.1288 17.4345C27.122 17.4739 27.1221 17.4739 27.1152 17.514C27.0806 17.6248 27.0452 17.6714 26.9544 17.7418C26.9112 17.7418 26.868 17.7418 26.8236 17.7418C26.7948 17.8142 26.766 17.8867 26.7363 17.9613C26.7076 17.9613 26.6788 17.9613 26.6491 17.9613C26.6491 17.9903 26.6491 18.0192 26.6491 18.0491C26.606 18.0491 26.5628 18.0491 26.5183 18.0491C26.5138 18.0751 26.5092 18.1012 26.5045 18.128C26.4703 18.2389 26.4289 18.2872 26.3466 18.3674C26.3237 18.3903 26.3008 18.4131 26.2773 18.4367C26.2131 18.4881 26.2131 18.4881 26.1258 18.4881C26.1133 18.5234 26.1007 18.5587 26.0877 18.5951C26.0386 18.7076 26.0386 18.7076 25.9514 18.7515C26.0429 18.8436 26.2178 18.8344 26.3439 18.8393C26.3741 18.8323 26.4043 18.8252 26.4355 18.818C26.6027 18.7882 26.7674 18.7893 26.9365 18.7898C26.9738 18.7897 27.0111 18.7896 27.0495 18.7895C27.1725 18.7893 27.2956 18.7895 27.4187 18.7896C27.5048 18.7896 27.5909 18.7895 27.677 18.7895C27.8578 18.7894 28.0385 18.7895 28.2192 18.7897C28.4491 18.79 28.679 18.7898 28.909 18.7896C29.087 18.7894 29.2651 18.7894 29.4432 18.7896C29.5279 18.7896 29.6125 18.7896 29.6972 18.7894C30.134 18.789 30.5674 18.7944 31.003 18.8298C31.1828 18.8423 31.3614 18.8414 31.5415 18.8397C31.7397 18.8391 31.9373 18.8492 32.1354 18.8585C32.4657 18.8732 32.7958 18.8849 33.1264 18.8913C34.0527 18.9099 34.9754 18.9533 35.9001 19.0142C36.4829 19.0524 37.0502 19.0786 37.6325 19.0177C37.6716 19.0139 37.7107 19.01 37.751 19.0061C37.9098 18.9902 38.0639 18.9731 38.2203 18.941C38.3545 18.9249 38.4112 18.9463 38.5291 19.0095C38.6982 19.0934 38.8454 19.1235 39.0333 19.1466C39.0621 19.1756 39.0909 19.2046 39.1206 19.2344C39.2363 19.2593 39.3513 19.2668 39.4694 19.2784C39.4694 19.3073 39.4694 19.3363 39.4694 19.3662C39.509 19.3788 39.5485 19.3915 39.5893 19.4046C39.8822 19.5066 39.8822 19.5066 39.9927 19.6735C40.0012 19.8208 40.0012 19.8208 39.9981 19.989C39.9973 20.0449 39.9966 20.1007 39.9957 20.1583C39.9942 20.2225 39.9942 20.2225 39.9927 20.2881C39.9495 20.2881 39.9063 20.2881 39.8619 20.2881C39.8448 20.2664 39.8277 20.2446 39.8101 20.2222C39.6802 20.114 39.5465 20.1483 39.3822 20.1564C39.3822 20.1854 39.3822 20.2143 39.3822 20.2442C39.3435 20.2491 39.3435 20.2491 39.304 20.2541C39.0291 20.3002 38.9329 20.3692 38.7717 20.5954C38.7429 20.5954 38.7141 20.5954 38.6845 20.5954C38.6851 20.6338 38.6851 20.6338 38.6857 20.6729C38.6767 20.9233 38.6245 21.0789 38.4883 21.2896C38.3331 21.5347 38.3022 21.7246 38.3036 22.0128C38.292 22.132 38.292 22.132 38.2314 22.2121C38.1612 22.2637 38.1612 22.2637 38.074 22.2966C37.9387 22.3817 37.9064 22.5134 37.856 22.6588C37.8442 22.6924 37.8325 22.726 37.8204 22.7607C37.7149 23.0637 37.7149 23.0637 37.6843 23.3804C37.6815 23.5364 37.6765 23.6247 37.5943 23.7563C37.4662 23.8057 37.4662 23.8057 37.3327 23.8441C37.2582 23.9118 37.2582 23.9118 37.2019 23.9758C37.1731 23.9758 37.1443 23.9758 37.1147 23.9758C37.1336 24.2659 37.1336 24.2659 37.2891 24.5027C37.26 24.5612 37.2309 24.6197 37.2019 24.6783C37.1902 24.7091 37.1785 24.7398 37.1664 24.7716C37.1147 24.8539 37.1147 24.8539 37.0111 24.895C36.8667 24.9539 36.8139 25.0371 36.7222 25.1612C36.6934 25.1757 36.6646 25.1902 36.635 25.2051C36.6494 25.2304 36.6638 25.2558 36.6786 25.2819C36.7222 25.3807 36.7222 25.3807 36.7222 25.5563C36.5528 25.7444 36.4219 25.8051 36.1717 25.8204C35.9741 25.8191 35.7793 25.8025 35.5876 25.7532C35.4885 25.7266 35.4885 25.7266 35.3322 25.7155C35.1635 25.6962 35.042 25.6342 34.8907 25.5563C34.7708 25.5452 34.7707 25.5452 34.6727 25.5563C34.7015 25.5418 34.7303 25.5273 34.7599 25.5124C34.7599 25.4834 34.7599 25.4545 34.7599 25.4246C34.875 25.4101 34.9902 25.3956 35.1088 25.3807C35.1088 25.3517 35.1088 25.3228 35.1088 25.2929C34.9505 25.2639 34.7922 25.2349 34.6291 25.2051C34.6291 25.1761 34.6291 25.1471 34.6291 25.1173C34.6867 25.0883 34.7442 25.0593 34.8035 25.0295C34.6035 24.9254 34.4396 24.8901 34.2148 24.8758C34.0649 24.8663 33.9432 24.8579 33.8006 24.81C33.6708 24.8001 33.5409 24.8019 33.4108 24.8017C33.3755 24.8012 33.3401 24.8007 33.3036 24.8001C33.2694 24.8 33.2351 24.7999 33.1998 24.7999C33.1531 24.7996 33.1531 24.7996 33.1054 24.7993C33.0021 24.8116 32.9312 24.8464 32.8412 24.8978C32.9276 24.9268 33.0139 24.9557 33.1029 24.9856C33.1029 25.0001 33.1029 25.0146 33.1029 25.0295C33.0688 25.0293 33.0346 25.029 32.9995 25.0288C32.8459 25.0279 32.6923 25.0273 32.5387 25.0267C32.485 25.0264 32.4313 25.026 32.376 25.0256C32.3249 25.0255 32.2739 25.0253 32.2214 25.0252C32.1741 25.025 32.1268 25.0247 32.0781 25.0245C31.9717 25.017 31.9717 25.017 31.9255 25.0734C32.0577 25.1495 32.1611 25.1736 32.3125 25.1831C32.486 25.1974 32.6346 25.2281 32.7976 25.2929C32.7976 25.3219 32.7976 25.3508 32.7976 25.3807C32.8696 25.3662 32.9415 25.3517 33.0157 25.3368C33.03 25.3658 33.0444 25.3948 33.0593 25.4246C32.5907 25.5198 32.1501 25.5301 31.6748 25.4877C31.4844 25.4715 31.3134 25.4709 31.1249 25.4983C30.9634 25.5181 30.8016 25.5257 30.6391 25.5344C30.3834 25.5484 30.1302 25.5676 29.876 25.6002C29.876 25.6147 29.876 25.6292 29.876 25.6441C29.9091 25.6468 29.9422 25.6494 29.9763 25.6522C30.0197 25.6559 30.063 25.6595 30.1077 25.6633C30.1507 25.6669 30.1937 25.6705 30.238 25.6741C30.3557 25.688 30.3557 25.688 30.4865 25.7319C30.5009 25.7754 30.5153 25.8188 30.5301 25.8636C30.4865 25.9075 30.4865 25.9075 30.3843 25.9125C30.3389 25.9123 30.2936 25.912 30.2469 25.9118C30.1956 25.9117 30.1444 25.9115 30.0916 25.9114C30.0357 25.911 29.9798 25.9106 29.9222 25.9103C29.8348 25.91 29.7474 25.9098 29.66 25.9095C29.4748 25.9089 29.2896 25.908 29.1044 25.9071C28.9526 25.9063 28.8009 25.9057 28.6491 25.9053C28.5352 25.905 28.4213 25.9044 28.3074 25.9037C28.0409 25.9029 27.7846 25.9094 27.5213 25.9514C27.5213 26.0094 27.5213 26.0673 27.5213 26.127C27.6059 26.2032 27.6932 26.2765 27.7829 26.3465C27.7973 26.3755 27.8117 26.4045 27.8265 26.4343C27.8697 26.4488 27.9128 26.4633 27.9573 26.4782C27.9699 26.5127 27.9825 26.5471 27.9955 26.5825C28.0582 26.7299 28.1254 26.7524 28.2626 26.8295C28.336 26.9019 28.4086 26.9752 28.4806 27.049C28.725 27.2778 28.9736 27.5019 29.2256 27.7222C29.2852 27.7743 29.3444 27.8267 29.4035 27.8793C29.4499 27.9206 29.4499 27.9206 29.4972 27.9627C29.5249 27.9874 29.5526 28.0121 29.5811 28.0376C29.6641 28.1102 29.6641 28.1102 29.7888 28.1904C29.7888 28.2194 29.7888 28.2484 29.7888 28.2782C29.836 28.2837 29.836 28.2837 29.8842 28.2892C30.0324 28.329 30.1125 28.3941 30.2248 28.4977C30.2392 28.5267 30.2536 28.5557 30.2685 28.5855C30.3401 28.6172 30.4128 28.6467 30.4865 28.6733C30.4865 28.7023 30.4865 28.7313 30.4865 28.7611C30.5184 28.7726 30.5503 28.7841 30.5832 28.796C30.8715 28.9219 31.0957 29.155 31.315 29.3758C31.4986 29.5298 31.683 29.6813 31.8819 29.8148C31.8819 29.8438 31.8819 29.8727 31.8819 29.9026C31.9116 29.9116 31.9413 29.9207 31.9718 29.93C32.106 29.9932 32.2013 30.0738 32.311 30.1729C32.4681 30.3079 32.6365 30.4279 32.8034 30.5503C32.9281 30.6487 33.0359 30.7544 33.1465 30.8684C33.1967 30.913 33.2475 30.957 33.2991 31.0001C33.4305 31.11 33.5497 31.229 33.6698 31.3513C33.7124 31.3944 33.7551 31.4373 33.7978 31.4803C34.0649 31.7492 34.0649 31.7492 34.13 31.8149C34.1897 31.8748 34.2499 31.934 34.3102 31.9932C34.3978 32.084 34.4701 32.1727 34.5419 32.276C34.6447 32.4181 34.7531 32.5159 34.8907 32.6245C34.9689 32.7395 35.027 32.8555 35.087 32.9812C35.1441 33.0915 35.1906 33.1592 35.2832 33.2391C35.1197 33.4531 35.1197 33.4531 35.0216 33.5025C34.9653 33.6027 34.9155 33.7052 34.8652 33.8085C34.8035 33.8977 34.8035 33.8977 34.7146 33.9374C34.6864 33.9388 34.6582 33.9402 34.6291 33.9416C34.6003 33.9126 34.5715 33.8836 34.5419 33.8537C34.4987 33.8393 34.4555 33.8248 34.4111 33.8098C34.4111 33.7809 34.4111 33.7519 34.4111 33.722C34.3756 33.7458 34.3756 33.7458 34.3394 33.7701C34.3082 33.7904 34.277 33.8108 34.2448 33.8318C34.214 33.8522 34.1831 33.8725 34.1513 33.8935C34.0622 33.9416 34.0622 33.9416 33.9314 33.9416C33.917 33.9705 33.9026 33.9995 33.8878 34.0294C33.8158 34.0149 33.7439 34.0004 33.6698 33.9855C33.6698 34.0289 33.6698 34.0724 33.6698 34.1172C33.5834 34.1027 33.4971 34.0882 33.4081 34.0733C33.3937 34.1167 33.3793 34.1602 33.3645 34.205C33.2384 34.2704 33.1194 34.2986 32.9802 34.3284C32.692 34.3981 32.4773 34.5638 32.2743 34.7757C32.1435 34.8196 32.1435 34.8196 32.0127 34.7757C32.0127 34.8047 32.0127 34.8336 32.0127 34.8635C31.883 34.9179 31.7575 34.9645 31.6203 34.9952C31.6203 35.0387 31.6203 35.0821 31.6203 35.1269C31.4036 35.2272 31.209 35.3025 30.9662 35.3025C30.9374 35.3894 30.9086 35.4764 30.8789 35.5659C30.8331 35.5605 30.8331 35.5605 30.7863 35.5549C30.6154 35.5699 30.5319 35.6342 30.3993 35.7415C30.3552 35.8144 30.3115 35.8875 30.2685 35.961C30.1594 36.0434 30.1594 36.0434 30.0504 36.0927C30.0073 36.0783 29.9641 36.0638 29.9196 36.0488C29.8908 36.1213 29.862 36.1937 29.8324 36.2683C29.7892 36.2683 29.7461 36.2683 29.7016 36.2683C29.7016 36.2973 29.7016 36.3263 29.7016 36.3562C29.6728 36.3562 29.644 36.3562 29.6144 36.3562C29.6144 36.3272 29.6144 36.2982 29.6144 36.2683C29.5917 36.28 29.5691 36.2917 29.5457 36.3037C29.1817 36.4893 29.1817 36.4893 29.0475 36.5318C29.0043 36.5173 28.9611 36.5028 28.9167 36.4879C28.931 36.4589 28.9454 36.4299 28.9603 36.4001C28.9342 36.3946 28.9081 36.3892 28.8812 36.3836C28.7858 36.3562 28.7858 36.3562 28.655 36.2683C28.655 36.2394 28.655 36.2104 28.655 36.1805C28.6118 36.1805 28.5687 36.1805 28.5242 36.1805C28.5242 36.1516 28.5242 36.1226 28.5242 36.0927C28.4954 36.0927 28.4666 36.0927 28.437 36.0927C28.3643 36.0196 28.2916 35.9464 28.219 35.8732C28.1245 35.8164 28.1245 35.8164 28.0445 35.7854C28.0445 35.7565 28.0445 35.7275 28.0445 35.6976C28.0184 35.6859 27.9924 35.6741 27.9655 35.662C27.8702 35.6099 27.8085 35.5617 27.7393 35.4781C27.7393 35.4491 27.7393 35.4202 27.7393 35.3903C27.7019 35.3724 27.7019 35.3724 27.6638 35.3541C27.563 35.3015 27.471 35.2429 27.3768 35.179C27.3426 35.1559 27.3085 35.1327 27.2732 35.1089C27.1832 35.0466 27.0945 34.983 27.0062 34.9184C26.9022 34.8445 26.8085 34.7831 26.6927 34.7318C26.6927 34.7028 26.6927 34.6738 26.6927 34.644C26.6352 34.6295 26.5776 34.615 26.5183 34.6001C26.5183 34.5711 26.5183 34.5421 26.5183 34.5123C26.4871 34.5014 26.4558 34.4904 26.4236 34.4792C26.2876 34.4188 26.1871 34.3453 26.0713 34.2516C26.0333 34.2213 25.9953 34.1911 25.9562 34.1599C25.8642 34.0733 25.8642 34.0733 25.8206 33.9416C25.748 33.912 25.6753 33.8828 25.6026 33.8537C25.5045 33.7816 25.4103 33.7087 25.3164 33.6315C25.2625 33.5878 25.2085 33.5442 25.1544 33.5006C25.1274 33.4788 25.1004 33.457 25.0725 33.4346C24.9116 33.307 24.745 33.1871 24.5788 33.0666C24.4654 32.9729 24.384 32.8726 24.2944 32.7562C24.237 32.7255 24.1788 32.6962 24.12 32.6684C24.0618 32.6099 24.0037 32.5513 23.9455 32.4928C23.9105 32.472 23.8754 32.4511 23.8392 32.4297C23.6362 32.305 23.4928 32.1227 23.3378 31.944C23.0631 31.6261 23.0631 31.6261 22.6809 31.4831C22.6763 31.9895 22.6779 32.4944 22.7027 33.0004C22.7258 33.4718 22.7275 33.9422 22.7229 34.414C22.7212 34.6704 22.7251 34.9193 22.7583 35.1735C22.7732 35.3018 22.7723 35.4287 22.7709 35.5577C22.7703 35.6287 22.7703 35.6287 22.7697 35.7012C22.7689 35.7646 22.7689 35.7646 22.7682 35.8293C22.7682 35.8873 22.7682 35.9452 22.7682 36.0049C22.7674 36.0676 22.7674 36.0676 22.7666 36.1315C22.7662 36.1785 22.7658 36.2254 22.7654 36.2738C22.7647 36.3433 22.7647 36.3433 22.7639 36.4141C22.7671 36.537 22.7759 36.6527 22.7898 36.7744C22.8205 37.0655 22.8181 37.3561 22.8172 37.6485C22.8174 37.7041 22.8176 37.7596 22.8177 37.8168C22.8177 37.8699 22.8176 37.9229 22.8176 37.9776C22.8175 38.0496 22.8175 38.0496 22.8174 38.1231C22.8118 38.2439 22.8118 38.2439 22.7682 38.3756C22.753 38.4487 22.7383 38.5218 22.7246 38.5951C22.6958 38.5951 22.667 38.5951 22.6373 38.5951C22.6491 38.6412 22.6491 38.6412 22.661 38.6883C22.6833 38.8294 22.6731 38.9398 22.651 39.0808C22.6445 39.1257 22.638 39.1706 22.6314 39.2168C22.5876 39.3619 22.5269 39.414 22.4193 39.5171C22.3762 39.6164 22.3762 39.6164 22.3512 39.7201C22.3027 39.9027 22.3027 39.9027 22.1577 40C22.1343 39.985 22.1109 39.97 22.0868 39.9546C21.9524 39.8996 21.8648 39.9173 21.7216 39.9369C21.4596 39.9632 21.2624 39.9262 21.012 39.852C20.8946 39.8247 20.8173 39.8239 20.6996 39.8436C20.5301 39.8705 20.4773 39.8507 20.3262 39.7805C20.1819 39.7545 20.0477 39.736 19.901 39.7393C19.8029 39.7366 19.8029 39.7366 19.6721 39.6488C19.6433 39.6923 19.6145 39.7357 19.5849 39.7805C19.5318 39.7642 19.4788 39.7479 19.4241 39.7311C19.2734 39.6904 19.2734 39.6904 19.127 39.7421C19.018 39.7805 19.018 39.7805 18.9349 39.7507C18.8756 39.7201 18.8169 39.6883 18.7591 39.655C18.5599 39.5441 18.4259 39.5059 18.1977 39.5335C18.1551 39.5384 18.1126 39.5433 18.0687 39.5483C18.0366 39.5525 18.0045 39.5567 17.9715 39.561C17.9571 39.532 17.9427 39.503 17.9278 39.4732C17.8991 39.4877 17.8703 39.5022 17.8406 39.5171C17.8119 39.5026 17.7831 39.4881 17.7534 39.4732C17.7534 39.4442 17.7534 39.4152 17.7534 39.3854C17.7246 39.3854 17.6959 39.3854 17.6662 39.3854C17.6662 39.4144 17.6662 39.4433 17.6662 39.4732C17.6087 39.4732 17.5511 39.4732 17.4918 39.4732C17.4918 39.4442 17.4918 39.4152 17.4918 39.3854C17.3623 39.4288 17.2328 39.4723 17.0993 39.5171C17.0993 39.5461 17.0993 39.575 17.0993 39.6049C16.9742 39.6521 16.8772 39.6458 16.7478 39.6268C16.5806 39.5928 16.5806 39.5928 16.4452 39.6488C16.4021 39.6198 16.3589 39.5908 16.3144 39.561C16.3 39.6044 16.2856 39.6479 16.2708 39.6927C16.1754 39.7284 16.1754 39.7284 16.0528 39.7366C15.8408 39.5638 15.7086 39.3842 15.6767 39.111C15.6713 39.0567 15.6659 39.0023 15.6603 38.9464C15.6459 38.9319 15.6315 38.9174 15.6167 38.9025C15.5916 38.7666 15.5718 38.6302 15.5513 38.4936C15.5417 38.3796 15.5417 38.3796 15.4859 38.3317C15.4837 38.2549 15.4843 38.1781 15.4862 38.1012C15.487 38.0537 15.4877 38.0061 15.4884 37.957C15.4903 37.857 15.4926 37.7569 15.4953 37.6569C15.4987 37.386 15.4773 37.1769 15.3807 36.9245C15.3403 36.7898 15.3708 36.6891 15.4096 36.5565C15.4939 36.2171 15.5129 35.8928 15.5255 35.5449C15.5313 35.3852 15.5385 35.2255 15.5457 35.0658C15.5494 34.982 15.5531 34.8982 15.5567 34.8144C15.566 34.6006 15.5789 34.388 15.5976 34.1748C15.6213 33.864 15.6215 33.5534 15.6222 33.2419C15.6225 33.1645 15.6225 33.1645 15.6228 33.0856C15.6227 33.0363 15.6226 32.9869 15.6225 32.9361C15.6225 32.892 15.6224 32.8478 15.6224 32.8023C15.6192 32.6673 15.6192 32.6673 15.5949 32.5309C15.5651 32.2986 15.5669 32.0693 15.5673 31.8353C15.5672 31.7588 15.5672 31.7588 15.5672 31.6808C15.5672 31.5729 15.5672 31.4649 15.5674 31.3569C15.5676 31.1949 15.5674 31.0329 15.5671 30.8708C15.567 30.2541 15.5803 29.6402 15.6167 29.0246C15.5605 29.0657 15.5044 29.1071 15.4484 29.1485C15.4172 29.1716 15.3859 29.1946 15.3538 29.2183C15.259 29.29 15.259 29.29 15.1697 29.4114C15.0839 29.5195 15.048 29.5245 14.919 29.5514C14.9046 29.5948 14.8902 29.6383 14.8754 29.6831C14.7994 29.7585 14.7994 29.7585 14.7064 29.8367C14.5771 29.9458 14.5771 29.9458 14.4581 30.0658C14.3957 30.1221 14.3957 30.1221 14.2649 30.1221C14.2507 30.1692 14.2507 30.1692 14.2363 30.2173C14.1623 30.3743 14.0666 30.4597 13.9379 30.5748C13.8951 30.6136 13.8524 30.6524 13.8084 30.6923C13.698 30.7806 13.698 30.7806 13.6108 30.7806C13.5997 30.8063 13.5886 30.832 13.5771 30.8585C13.5183 30.966 13.4543 31.0317 13.3655 31.1154C13.2306 31.247 13.1125 31.3827 12.9976 31.5324C12.8748 31.6909 12.7507 31.8185 12.5959 31.9444C12.411 32.1053 12.2579 32.2969 12.1227 32.501C12.0348 32.6338 11.9363 32.7327 11.823 32.844C11.6971 32.9851 11.5787 33.1251 11.4741 33.283C11.4453 33.283 11.4165 33.283 11.3869 33.283C11.3694 33.3251 11.3694 33.3251 11.3515 33.3681C11.2997 33.4586 11.2997 33.4586 11.1689 33.5025C11.1387 33.5753 11.1098 33.6485 11.0816 33.722C11.0075 33.8176 11.0075 33.8176 10.9208 33.9114C10.8896 33.9457 10.8583 33.9801 10.8261 34.0155C10.7953 34.049 10.7645 34.0826 10.7328 34.1172C10.5248 34.3511 10.3265 34.5917 10.1315 34.8366C10.0319 34.9551 9.93045 35.0656 9.81706 35.1708C9.78828 35.1708 9.7595 35.1708 9.72985 35.1708C9.72614 35.1964 9.72243 35.2221 9.71861 35.2485C9.67706 35.3742 9.61723 35.4233 9.51727 35.5083C9.4868 35.5347 9.45633 35.5612 9.42494 35.5884C9.33739 35.6537 9.33739 35.6537 9.20657 35.6976C9.19398 35.723 9.18139 35.7483 9.16842 35.7745C9.08737 35.9376 8.9734 36.0672 8.80049 36.1284C8.76406 36.1325 8.76406 36.1325 8.7269 36.1366C8.7269 36.1656 8.7269 36.1946 8.7269 36.2244C8.58136 36.2733 8.56239 36.2599 8.42166 36.2244C8.34611 36.2285 8.34611 36.2285 8.26903 36.2327C8.11641 36.2244 8.11641 36.2244 8.01285 36.1504C7.93613 36.0404 7.913 35.9618 7.89838 35.8293C7.92716 35.8148 7.95594 35.8004 7.98559 35.7854C7.9524 35.7348 7.91868 35.6846 7.88475 35.6345C7.85667 35.5925 7.85667 35.5925 7.82803 35.5496C7.76741 35.4655 7.76741 35.4655 7.63674 35.4342C7.63134 35.4061 7.62595 35.3781 7.62039 35.3492C7.61139 35.3193 7.6024 35.2894 7.59313 35.2586C7.49657 35.2109 7.49657 35.2109 7.3751 35.1708C7.27154 35.1151 7.17109 35.0552 7.06986 34.9952C7.06986 34.9517 7.06986 34.9083 7.06986 34.8635C7.04108 34.8635 7.0123 34.8635 6.98265 34.8635C6.96376 34.8137 6.94487 34.7639 6.92541 34.7126C6.90113 34.661 6.87684 34.6094 6.85183 34.5562C6.80866 34.5417 6.76548 34.5272 6.72101 34.5123C6.69403 34.4969 6.66704 34.4815 6.63924 34.4656C6.52966 34.417 6.44707 34.4178 6.32855 34.4245C6.31416 34.3375 6.29977 34.2506 6.28494 34.1611C6.23638 34.1484 6.18781 34.1357 6.13777 34.1226C5.9797 34.0733 5.9797 34.0733 5.89249 33.9855C5.79644 33.9653 5.79644 33.9653 5.69081 33.958C5.65517 33.9547 5.61953 33.9515 5.58281 33.9481C5.55549 33.9459 5.52817 33.9438 5.50003 33.9416C5.48114 33.8918 5.46225 33.842 5.44279 33.7906C5.41851 33.739 5.39423 33.6874 5.36921 33.6342C5.32604 33.6198 5.28287 33.6053 5.23839 33.5903C5.17877 33.6322 5.12054 33.6761 5.06396 33.722C5.03518 33.722 5.0064 33.722 4.97675 33.722C4.97675 33.6786 4.97675 33.6351 4.97675 33.5903C4.93358 33.5903 4.89041 33.5903 4.84593 33.5903C4.84593 33.4889 4.84593 33.3875 4.84593 33.283C4.77398 33.312 4.70203 33.341 4.6279 33.3708C4.59912 33.3419 4.57034 33.3129 4.54069 33.283C4.43896 33.2812 4.33717 33.2812 4.23544 33.283C4.20666 33.2685 4.17788 33.2541 4.14823 33.2391C4.13744 33.2047 4.12664 33.1703 4.11552 33.1349C4.03941 32.9739 3.96347 32.951 3.79938 32.8879C3.69591 32.8619 3.59259 32.8391 3.48783 32.819C3.40692 32.8001 3.40692 32.8001 3.36331 32.7562C3.15224 32.749 2.96072 32.7582 2.75283 32.8001C2.75283 32.8291 2.75283 32.8581 2.75283 32.8879C2.70966 32.8879 2.66648 32.8879 2.62201 32.8879C2.61661 32.9305 2.61121 32.973 2.60565 33.0169C2.59666 33.0612 2.58767 33.1056 2.5784 33.1513C2.54962 33.1658 2.52084 33.1803 2.49119 33.1952C2.44802 33.1662 2.40485 33.1373 2.36037 33.1074C2.42008 32.9779 2.48588 32.8649 2.5784 32.7562C2.60718 32.7562 2.63596 32.7562 2.66561 32.7562C2.65932 32.72 2.65302 32.6838 2.64653 32.6465C2.67138 32.4464 2.75594 32.3686 2.89131 32.2263C2.97339 32.1427 2.97339 32.1427 3.04087 32.0431C3.06093 32.0177 3.081 31.9922 3.10168 31.966C3.13046 31.966 3.15924 31.966 3.18889 31.966C3.19991 31.9413 3.21092 31.9166 3.22228 31.8912C3.28379 31.776 3.35714 31.6829 3.43963 31.5818C3.55175 31.4434 3.66021 31.3041 3.76395 31.1593C3.86439 31.0228 3.97125 30.9293 4.10462 30.8245C4.18034 30.7427 4.25237 30.6583 4.32453 30.5733C4.44987 30.4264 4.57954 30.2836 4.70864 30.1401C4.79194 30.046 4.87238 29.9503 4.95222 29.8532C4.9891 29.8115 5.02597 29.7699 5.06396 29.727C5.09274 29.727 5.12152 29.727 5.15118 29.727C5.16073 29.7038 5.17029 29.6806 5.18013 29.6567C5.25979 29.5127 5.36532 29.3947 5.47277 29.2715C5.51985 29.2169 5.56692 29.1623 5.61398 29.1077C5.63825 29.0797 5.66251 29.0517 5.68751 29.0228C5.76144 28.937 5.83481 28.8508 5.90799 28.7644C5.94316 28.7229 5.94316 28.7229 5.97904 28.6805C6.02401 28.6274 6.06897 28.5742 6.1139 28.5211C6.21101 28.4067 6.30904 28.2957 6.41576 28.1904C6.46435 28.1359 6.51247 28.081 6.56021 28.0258C6.58691 27.9949 6.61361 27.9641 6.64112 27.9323C6.71368 27.8477 6.78554 27.7626 6.85728 27.6773C6.966 27.5493 7.08078 27.43 7.20068 27.3124C7.23935 27.2716 7.27802 27.2309 7.31787 27.1889C7.41871 27.0929 7.41871 27.0929 7.50592 27.0929C7.51764 27.0667 7.52936 27.0406 7.54144 27.0137C7.59329 26.917 7.64458 26.8559 7.72259 26.7799C7.74749 26.7553 7.77239 26.7307 7.79805 26.7054C7.82396 26.6802 7.84988 26.6551 7.87658 26.6292C7.928 26.5789 7.97933 26.5285 8.03056 26.4781C8.06467 26.4449 8.06467 26.4449 8.09946 26.4111C8.16986 26.3397 8.16986 26.3397 8.24723 26.2148C8.27601 26.2148 8.30479 26.2148 8.33444 26.2148C8.33444 26.1859 8.33444 26.1569 8.33444 26.127C8.17234 26.0891 8.02373 26.0782 7.85747 26.0795C7.80614 26.0798 7.75482 26.0801 7.70194 26.0804C7.61882 26.0812 7.61882 26.0812 7.53403 26.0819C7.47546 26.0822 7.4169 26.0825 7.35833 26.0828C7.11105 26.0838 6.86377 26.0853 6.61649 26.0873C5.8991 26.093 5.19154 26.0782 4.4761 26.015C4.19066 25.9902 3.90871 25.9867 3.62223 25.9926C3.30674 25.9959 2.99396 25.9968 2.67924 25.9734C2.32714 25.9478 1.97662 25.9489 1.62371 25.9531C1.58103 25.9534 1.53835 25.9538 1.49437 25.9542C1.4374 25.9549 1.4374 25.9549 1.37927 25.9557C1.26571 25.9513 1.16286 25.9328 1.05218 25.9075C0.991215 25.894 0.991215 25.894 0.929022 25.8803C0.603402 25.7868 0.603402 25.7868 0.520553 25.6397C0.46068 25.3741 0.469576 25.0754 0.5289 24.81C0.55768 24.7955 0.58646 24.781 0.616113 24.7661C0.587332 24.7371 0.558552 24.7081 0.5289 24.6783C0.5289 24.6203 0.5289 24.5624 0.5289 24.5027C0.55768 24.5027 0.58646 24.5027 0.616113 24.5027C0.608018 24.4683 0.599924 24.4338 0.591584 24.3984C0.572506 24.2832 0.572506 24.2832 0.616113 24.1954C0.587332 24.1809 0.558552 24.1664 0.5289 24.1515C0.518466 23.9554 0.51707 23.8088 0.594309 23.6274C0.663773 23.461 0.668246 23.3246 0.661252 23.1458C0.659719 23.0539 0.659719 23.0539 0.684248 22.9167C0.707417 22.7634 0.684936 22.6355 0.659719 22.4832C0.659719 22.4252 0.659719 22.3673 0.659719 22.3076C0.688499 22.3076 0.717279 22.3076 0.746932 22.3076C0.732717 22.2828 0.718503 22.258 0.703858 22.2325C0.655098 22.1214 0.649616 22.0496 0.651202 21.9289C0.651624 21.8715 0.651624 21.8715 0.652054 21.813C0.652785 21.7734 0.653515 21.7338 0.654268 21.6929C0.654662 21.6533 0.655055 21.6137 0.655461 21.5729C0.656219 21.4992 0.657157 21.4254 0.658335 21.3517C0.659625 21.2606 0.659719 21.1694 0.659719 21.0783C0.665398 20.9694 0.671835 20.8606 0.678797 20.7518C0.682338 20.6948 0.685879 20.6378 0.689528 20.5791C0.700834 20.4486 0.719397 20.3279 0.746932 20.2003C0.756949 20.1318 0.766074 20.0632 0.774186 19.9945C0.778345 19.9608 0.782505 19.9272 0.786791 19.8925C0.797708 19.8019 0.797708 19.8019 0.746932 19.7174C0.775712 19.7029 0.804492 19.6884 0.834145 19.6735C0.830097 19.5933 0.830097 19.5933 0.825968 19.5116C0.825064 19.3408 0.861496 19.2416 0.964964 19.1027C0.936183 19.1027 0.907403 19.1027 0.877751 19.1027C0.891378 19.0177 0.891378 19.0177 0.921357 18.9271C0.964528 18.9126 1.0077 18.8982 1.05218 18.8832C1.06657 18.8543 1.08096 18.8253 1.09578 18.7954C1.15334 18.7954 1.2109 18.7954 1.27021 18.7954C1.30888 18.7809 1.34756 18.7665 1.3874 18.7515C1.54182 18.7046 1.66265 18.7021 1.8221 18.7088C1.92669 18.7106 1.92669 18.7106 2.03707 18.6862C2.2486 18.6543 2.45749 18.6574 2.67106 18.6582C2.73573 18.658 2.73573 18.658 2.80171 18.6577C2.86402 18.6578 2.86402 18.6578 2.92759 18.6579C2.9652 18.6579 3.00282 18.658 3.04157 18.658C3.14076 18.6635 3.22396 18.6826 3.31971 18.7076C3.38272 18.7134 3.44591 18.7174 3.50912 18.72C3.56326 18.7224 3.56326 18.7224 3.61848 18.7249C3.65659 18.7264 3.6947 18.728 3.73397 18.7296C3.97451 18.7402 4.21386 18.7516 4.45347 18.7762C4.66457 18.7952 4.87402 18.797 5.08577 18.7954C5.49029 18.7926 5.89426 18.8009 6.2986 18.8118C6.36893 18.8137 6.43926 18.8155 6.50959 18.8173C6.60982 18.8198 6.71004 18.8226 6.81026 18.8254C6.84003 18.8262 6.86981 18.8269 6.90048 18.8277C7.04781 18.8322 7.1912 18.8432 7.33682 18.8649C7.498 18.8824 7.61006 18.8695 7.76756 18.8393C7.8842 18.8353 7.99964 18.8332 8.11624 18.8335C8.14902 18.8335 8.1818 18.8334 8.21558 18.8334C8.28459 18.8333 8.35359 18.8334 8.4226 18.8336C8.52747 18.8338 8.63234 18.8336 8.73721 18.8333C8.80457 18.8334 8.87194 18.8334 8.93931 18.8335C8.98579 18.8334 8.98579 18.8334 9.03321 18.8332C9.22556 18.8341 9.40924 18.8526 9.59903 18.8832C9.89811 18.9056 10.1789 18.857 10.4712 18.7954C10.3557 18.4827 10.1584 18.2953 9.90427 18.093C9.94744 18.064 9.99061 18.0351 10.0351 18.0052C9.99912 17.997 9.96314 17.9889 9.92608 17.9805C9.64263 17.8633 9.43882 17.6607 9.29378 17.3906C9.26231 17.3589 9.23083 17.3272 9.19839 17.2945C9.11936 17.215 9.11936 17.215 9.11936 17.1272C9.08428 17.1136 9.08428 17.1136 9.0485 17.0997C8.85765 16.9885 8.71754 16.8277 8.59608 16.6442C8.51906 16.5755 8.43924 16.5113 8.3588 16.4467C8.29084 16.3808 8.29084 16.3808 8.24723 16.2491C8.16001 16.1961 8.16001 16.1961 8.0728 16.1613C8.0728 16.1179 8.0728 16.0744 8.0728 16.0296C8.02963 16.0296 7.98646 16.0296 7.94199 16.0296C7.93209 15.9952 7.9222 15.9608 7.91201 15.9254C7.86631 15.8013 7.86631 15.8013 7.75121 15.769C7.59354 15.7047 7.5508 15.6014 7.46232 15.4589C7.41914 15.4299 7.37597 15.4009 7.3315 15.3711C7.3315 15.3276 7.3315 15.2842 7.3315 15.2394C7.25955 15.2104 7.18759 15.1814 7.11346 15.1516C7.11346 15.1081 7.11346 15.0647 7.11346 15.0199C7.08738 15.009 7.0613 14.9981 7.03443 14.987C6.92562 14.9244 6.88267 14.8564 6.80822 14.7565C6.78124 14.7429 6.75426 14.7293 6.72646 14.7153C6.59544 14.6494 6.51181 14.5593 6.41576 14.4492C6.41576 14.4057 6.41576 14.3622 6.41576 14.3174C6.39035 14.3138 6.36495 14.3101 6.33877 14.3063C6.21296 14.264 6.16298 14.202 6.07781 14.1007C6.05106 14.0695 6.0243 14.0383 5.99673 14.0062C5.93609 13.9223 5.93609 13.9223 5.93609 13.8345C5.90731 13.8345 5.87853 13.8345 5.84888 13.8345C5.84888 13.8056 5.84888 13.7766 5.84888 13.7467C5.8201 13.7467 5.79132 13.7467 5.76167 13.7467C5.69081 13.6864 5.69081 13.6864 5.63085 13.615C5.63085 13.586 5.63085 13.5571 5.63085 13.5272C5.58768 13.5127 5.54451 13.4982 5.50003 13.4833C5.42629 13.3964 5.35358 13.3086 5.282 13.2199C5.25322 13.2054 5.22444 13.1909 5.19478 13.176C5.16571 13.1028 5.13664 13.0297 5.10757 12.9565C5.07879 12.942 5.05001 12.9275 5.02036 12.9126C5.02036 12.8836 5.02036 12.8546 5.02036 12.8248C4.9628 12.8103 4.90524 12.7958 4.84593 12.7809C4.84593 12.7519 4.84593 12.7229 4.84593 12.6931C4.82004 12.6813 4.79414 12.6695 4.76746 12.6573C4.67108 12.605 4.60843 12.5525 4.53166 12.4746C4.50623 12.4489 4.48079 12.4233 4.45459 12.3968C4.42814 12.3696 4.40169 12.3424 4.37444 12.3144C4.34712 12.2866 4.31979 12.2588 4.29164 12.2302C4.12892 12.0637 3.9718 11.894 3.82186 11.7156C3.7496 11.6323 3.67327 11.555 3.59497 11.4776C3.47895 11.3623 3.37113 11.2466 3.2761 11.1126C3.2761 11.0836 3.2761 11.0547 3.2761 11.0248C3.25069 11.0139 3.22529 11.003 3.19911 10.9917C3.08794 10.9293 3.02161 10.8606 2.93815 10.7641C2.9114 10.7339 2.88464 10.7036 2.85707 10.6724C2.79643 10.5858 2.79643 10.5858 2.79643 10.4541C2.75326 10.4541 2.71009 10.4541 2.66561 10.4541C2.50295 10.3076 2.36866 10.14 2.22955 9.97117C2.17963 9.92227 2.17963 9.92228 2.12871 9.87239C2.05512 9.79556 2.05512 9.79556 2.05512 9.70776C2.01195 9.69327 1.96878 9.67878 1.9243 9.66386C1.86472 9.59187 1.80679 9.51849 1.74988 9.44435C1.7148 9.40903 1.67973 9.37372 1.64359 9.33734C1.52234 9.21527 1.41443 9.10145 1.31381 8.96143C1.32199 8.85716 1.32199 8.85716 1.35742 8.78582C1.33044 8.79397 1.30346 8.80212 1.27566 8.81052C1.183 8.82972 1.183 8.82972 1.09578 8.78582C1.06671 8.72729 1.03764 8.66875 1.00857 8.61021C0.97979 8.59573 0.95101 8.58124 0.921357 8.56631C0.921357 8.53734 0.921357 8.50836 0.921357 8.47851C0.896793 8.46934 0.872229 8.46017 0.84692 8.45073C0.709407 8.36818 0.637433 8.26197 0.542527 8.13278C0.508182 8.08672 0.473837 8.04065 0.438451 7.99319C0.367537 7.884 0.328822 7.81512 0.310868 7.68828C0.282088 7.68828 0.253308 7.68828 0.223655 7.68828C0.0372233 7.36718 -0.0434223 7.1262 0.0229977 6.75776C0.0492296 6.67854 0.0492296 6.67854 0.136442 6.63463C0.163424 6.58166 0.163424 6.58166 0.19095 6.52762C0.289886 6.38177 0.362788 6.37781 0.5289 6.32732C0.622376 6.27229 0.712198 6.21345 0.802121 6.15274C0.877751 6.10781 0.877751 6.10781 0.964964 6.10781C0.964964 6.07884 0.964964 6.04986 0.964964 6.02001C1.00813 6.00552 1.0513 5.99103 1.09578 5.97611C1.12456 6.01957 1.15334 6.06303 1.183 6.10781C1.19559 6.05892 1.20818 6.01002 1.22115 5.95964C1.25658 5.87373 1.25658 5.87373 1.31381 5.8005C1.42358 5.76616 1.52954 5.75344 1.64342 5.73859C1.81791 5.69615 1.86855 5.5948 1.96791 5.44929C2.09873 5.36148 2.09873 5.36148 2.22955 5.36148C2.25113 5.29629 2.25113 5.29629 2.27316 5.22978C2.38108 5.20805 2.38108 5.20805 2.49119 5.18587C2.51277 5.12068 2.51277 5.12068 2.53479 5.05417C2.60429 5.00598 2.60429 5.00598 2.68742 4.96362C2.81083 4.90383 2.81083 4.90383 2.88364 4.79076C2.91242 4.79076 2.94121 4.79076 2.97086 4.79076C2.97086 4.76178 2.97086 4.73281 2.97086 4.70295C3.04101 4.69481 3.04101 4.69481 3.11258 4.68649C3.25098 4.66327 3.3313 4.63793 3.45053 4.57125C3.47931 4.57125 3.50809 4.57125 3.53774 4.57125C3.55753 4.52869 3.57731 4.48613 3.5977 4.44229C3.66856 4.30784 3.66856 4.30784 3.75577 4.26394C3.8723 4.25805 3.98787 4.26204 4.10462 4.26394C4.10462 4.20599 4.10462 4.14804 4.10462 4.08833C4.14779 4.07384 4.19096 4.05935 4.23544 4.04443C4.24983 4.01545 4.26422 3.98648 4.27905 3.95662C4.3787 3.92884 4.3787 3.92884 4.49981 3.90723C4.53989 3.89988 4.57996 3.89252 4.62126 3.88494C4.66772 3.87696 4.66772 3.87696 4.71511 3.86882C4.71511 3.83985 4.71511 3.81087 4.71511 3.78102C4.80145 3.7955 4.88779 3.80999 4.97675 3.82492C4.97675 3.78146 4.97675 3.73799 4.97675 3.69321C5.0487 3.69321 5.12065 3.69321 5.19478 3.69321C5.21637 3.62802 5.21637 3.62802 5.23839 3.56151C5.38713 3.56151 5.52754 3.58308 5.67445 3.60541C5.68884 3.64887 5.70323 3.69234 5.71806 3.73712C5.76123 3.73712 5.8044 3.73712 5.84888 3.73712C6.0358 3.87398 6.1791 4.03164 6.32804 4.20854C6.46648 4.36524 6.61717 4.5092 6.76717 4.65459C6.85183 4.74686 6.85183 4.74686 6.85183 4.83466C6.88061 4.83466 6.90939 4.83466 6.93904 4.83466C6.99406 4.91029 6.99406 4.91029 7.05623 5.01301C7.14844 5.15866 7.24148 5.27668 7.36693 5.39441C7.48644 5.5081 7.54433 5.584 7.54953 5.7566C7.5927 5.77109 7.63587 5.78557 7.68035 5.8005C7.68035 5.82947 7.68035 5.85845 7.68035 5.8883C7.73791 5.90279 7.79547 5.91728 7.85477 5.9322C7.86916 5.99016 7.88355 6.04811 7.89838 6.10781C7.92716 6.10781 7.95594 6.10781 7.98559 6.10781C7.98559 6.13679 7.98559 6.16576 7.98559 6.19562C8.02876 6.2101 8.07193 6.22459 8.11641 6.23952C8.12585 6.28162 8.12585 6.28162 8.13549 6.32458C8.14358 6.35446 8.15168 6.38434 8.16002 6.41512C8.1888 6.42961 8.21758 6.4441 8.24723 6.45903C8.27601 6.47351 8.30479 6.488 8.33444 6.50293C8.34898 6.56146 8.36351 6.62 8.37805 6.67854C8.43535 6.70944 8.49369 6.73839 8.55247 6.76634C8.67635 6.88121 8.78588 7.00377 8.89315 7.13402C9.01643 7.28117 9.15326 7.40408 9.29838 7.52896C9.57353 7.76714 9.57353 7.76714 9.64536 7.91602C9.68055 8.00397 9.68055 8.00397 9.77618 8.03949C9.80406 8.05398 9.83194 8.06847 9.86067 8.08339C9.8752 8.14193 9.88974 8.20046 9.90427 8.259C9.96201 8.28908 10.0202 8.3182 10.0787 8.3468C10.3509 8.55709 10.5682 8.80643 10.7791 9.07667C10.8733 9.19284 10.9751 9.29577 11.0816 9.40045C11.1543 9.47362 11.227 9.54679 11.2997 9.61996C11.3509 9.67021 11.3509 9.67021 11.4032 9.72148C11.4958 9.81693 11.5817 9.91373 11.6676 10.0151C11.763 10.1269 11.8575 10.2235 11.9729 10.3142C12.0097 10.3458 12.0466 10.3775 12.0846 10.4102C12.0846 10.4537 12.0846 10.4971 12.0846 10.5419C12.1101 10.5532 12.1356 10.5645 12.1619 10.5762C12.2667 10.6339 12.3345 10.697 12.4171 10.7834C12.4428 10.8101 12.4686 10.8368 12.4951 10.8643C12.5179 10.8883 12.5407 10.9123 12.5643 10.937C12.593 10.966 12.6218 10.995 12.6515 11.0248C12.6839 11.0583 12.7162 11.0918 12.7496 11.1263C12.8362 11.2115 12.92 11.2867 13.014 11.3623C13.0526 11.3958 13.0913 11.4293 13.1311 11.4638C13.1311 11.4928 13.1311 11.5218 13.1311 11.5516C13.1572 11.5625 13.1833 11.5734 13.2102 11.5846C13.3194 11.6474 13.3701 11.7083 13.4364 11.815C13.4364 11.844 13.4364 11.873 13.4364 11.9028C13.4863 11.9191 13.4863 11.9191 13.5372 11.9358C13.6675 11.9968 13.7031 12.0513 13.7852 12.1663C13.8127 12.1796 13.8401 12.1929 13.8684 12.2066C13.9692 12.259 14.0173 12.3108 14.0878 12.3995C14.2304 12.5734 14.3772 12.7317 14.5538 12.8714C14.6521 12.9521 14.7206 13.0246 14.7882 13.1321C14.7882 13.1611 14.7882 13.1901 14.7882 13.2199C14.8161 13.2317 14.844 13.2434 14.8727 13.2556C14.9626 13.3077 14.9626 13.3077 15.0062 13.4394C15.035 13.4394 15.0638 13.4394 15.0934 13.4394C15.158 13.507 15.158 13.507 15.2324 13.5986C15.3548 13.744 15.4812 13.8647 15.6274 13.9849C15.7139 14.0631 15.7852 14.1479 15.8593 14.2379C15.9825 14.3849 16.0946 14.4586 16.2708 14.537C16.2996 14.5804 16.3284 14.6239 16.358 14.6687C16.358 14.6216 16.358 14.5745 16.358 14.526C16.358 14.2897 16.3638 14.1125 16.4452 13.8921C16.4912 13.7387 16.5085 13.5964 16.5217 13.4374C16.5324 13.3516 16.5324 13.3516 16.576 13.2638C16.6048 13.2638 16.6336 13.2638 16.6633 13.2638C16.6777 13.1769 16.692 13.09 16.7069 13.0004C16.6781 12.9859 16.6493 12.9714 16.6197 12.9565C16.6628 12.9565 16.706 12.9565 16.7505 12.9565C16.7505 12.9275 16.7505 12.8985 16.7505 12.8687C16.7217 12.8687 16.6929 12.8687 16.6633 12.8687C16.6496 12.8074 16.636 12.7461 16.6224 12.6848C16.611 12.6337 16.611 12.6337 16.5994 12.5814C16.5917 12.5458 16.584 12.5102 16.576 12.4736C16.5671 12.4392 16.5581 12.4048 16.5488 12.3693C16.528 12.2229 16.5485 12.1004 16.5733 11.955C16.5861 11.8785 16.5861 11.8785 16.599 11.8005C16.6058 11.7618 16.6126 11.7232 16.6197 11.6833C16.634 11.7123 16.6484 11.7413 16.6633 11.7711C16.692 11.7711 16.7208 11.7711 16.7505 11.7711C16.7505 11.7422 16.7505 11.7132 16.7505 11.6833C16.7793 11.6833 16.808 11.6833 16.8377 11.6833C16.8377 11.6399 16.8377 11.5964 16.8377 11.5516C16.8665 11.5516 16.8953 11.5516 16.9249 11.5516C16.9105 11.4792 16.8961 11.4068 16.8813 11.3321C16.8525 11.3321 16.8237 11.3321 16.7941 11.3321C16.7797 11.4191 16.7653 11.506 16.7505 11.5955C16.7217 11.5955 16.6929 11.5955 16.6633 11.5955C16.6609 11.4675 16.6592 11.3395 16.6578 11.2114C16.6571 11.1752 16.6564 11.139 16.6556 11.1016C16.6553 11.0666 16.655 11.0315 16.6547 10.9953C16.6543 10.9631 16.6538 10.9309 16.6534 10.8978C16.6647 10.7922 16.6985 10.7213 16.7505 10.6297C16.7793 10.6442 16.808 10.6587 16.8377 10.6736C16.8377 10.7315 16.8377 10.7895 16.8377 10.8492C16.8665 10.8492 16.8953 10.8492 16.9249 10.8492C16.9302 10.8237 16.9355 10.7983 16.9409 10.772C16.9751 10.6117 17.0106 10.4584 17.0639 10.3032C17.113 10.1927 17.113 10.1927 17.0557 10.1029C17.0631 10.0224 17.074 9.94226 17.0866 9.86244C17.0941 9.81261 17.1017 9.76278 17.1095 9.71144C17.1178 9.65771 17.1262 9.60397 17.1348 9.54862C17.2048 9.08101 17.2583 8.61561 17.2914 8.14391C17.2943 8.10306 17.2972 8.0622 17.3002 8.02011C17.3036 7.96667 17.3036 7.96667 17.3072 7.91215C17.3174 7.81998 17.3174 7.81998 17.361 7.68828C17.3583 7.62172 17.3583 7.62172 17.3555 7.55383C17.3624 7.33468 17.4225 7.14841 17.4918 6.94195C17.463 6.94195 17.4342 6.94195 17.4046 6.94195C17.3966 6.70992 17.4122 6.54754 17.4918 6.32732C17.4918 6.26937 17.4918 6.21142 17.4918 6.15171C17.4342 6.15171 17.3767 6.15171 17.3174 6.15171C17.303 6.19518 17.2886 6.23864 17.2738 6.28342C17.2306 6.26893 17.1874 6.25444 17.1429 6.23952C17.112 5.99675 17.0861 5.77856 17.1429 5.53709C17.1717 5.53709 17.2005 5.53709 17.2301 5.53709C17.2301 5.50811 17.2301 5.47914 17.2301 5.44929C17.2589 5.44929 17.2877 5.44929 17.3174 5.44929C17.3021 5.41759 17.2868 5.3859 17.271 5.35325C17.2256 5.21607 17.2349 5.14717 17.2738 5.01027C17.245 4.99578 17.2162 4.98129 17.1865 4.96637C17.117 4.66528 17.1391 4.35161 17.1429 4.04443C17.1717 4.04443 17.2005 4.04443 17.2301 4.04443C17.2158 4.01545 17.2014 3.98648 17.1865 3.95662C17.1834 3.84643 17.1825 3.7375 17.1838 3.62736C17.184 3.59708 17.1842 3.56681 17.1844 3.53561C17.1849 3.45644 17.1857 3.37727 17.1865 3.2981C17.1865 3.26912 17.1865 3.24015 17.1865 3.21029C17.1974 3.05488 17.209 2.89954 17.2206 2.74418C17.2275 2.63632 17.2301 2.52815 17.2301 2.42006C17.2377 2.34774 17.2459 2.27549 17.2547 2.2033C17.2714 2.0434 17.2691 1.91834 17.2301 1.76153C17.2301 1.67373 17.2301 1.58593 17.2301 1.49812C17.2221 1.47096 17.214 1.44379 17.2056 1.41581C17.1849 1.31474 17.1938 1.24581 17.2083 1.14417C17.2422 0.975899 17.2422 0.975899 17.1865 0.839596C17.2153 0.839596 17.2441 0.839596 17.2738 0.839596C17.2595 0.80864 17.2452 0.777685 17.2305 0.745791C17.1829 0.609609 17.1777 0.508574 17.1811 0.364908C17.1819 0.322068 17.1827 0.279228 17.1835 0.235089C17.185 0.186618 17.185 0.186618 17.1865 0.137168C17.1578 0.12268 17.129 0.108192 17.0993 0.0932659C17.1137 0.0642907 17.1281 0.0353155 17.1429 0.00546227ZM17.7534 7.95169C17.797 8.03949 17.797 8.03949 17.797 8.03949L17.7534 7.95169ZM17.7098 8.61021C17.7534 8.69802 17.7534 8.69802 17.7534 8.69802L17.7098 8.61021ZM18.6692 38.2878C18.6835 38.3748 18.6979 38.4617 18.7128 38.5512C18.8381 38.4947 18.9275 38.4365 19.018 38.3317C19.018 38.3172 19.018 38.3028 19.018 38.2878C18.9029 38.2878 18.7878 38.2878 18.6692 38.2878ZM19.8465 38.5073C19.7868 38.7057 19.826 38.8405 19.8901 39.0342C19.9333 39.0342 19.9765 39.0342 20.021 39.0342C20.0294 38.9629 20.0375 38.8915 20.0455 38.8201C20.05 38.7804 20.0546 38.7407 20.0593 38.6998C20.0731 38.5944 20.0731 38.5944 20.021 38.5073C19.9634 38.5073 19.9058 38.5073 19.8465 38.5073Z" fill="#0019FF"/>
</svg>
