<svg width="16" height="16" viewBox="0 0 16 16" fill="none" xmlns="http://www.w3.org/2000/svg">
<path d="M9.23242 2.83354V4.44688" stroke="#0019FF" stroke-width="1.5" stroke-linecap="round" stroke-linejoin="round"/>
<path d="M9.23242 11.8401V13.1894" stroke="#0019FF" stroke-width="1.5" stroke-linecap="round" stroke-linejoin="round"/>
<path d="M9.23242 9.54974V6.33574" stroke="#0019FF" stroke-width="1.5" stroke-linecap="round" stroke-linejoin="round"/>
<path fill-rule="evenodd" clip-rule="evenodd" d="M12.4678 13.3333C13.6825 13.3333 14.6663 12.3617 14.6663 11.1621V9.43376C13.8626 9.43376 13.2152 8.79448 13.2152 8.00069C13.2152 7.20691 13.8626 6.56693 14.6663 6.56693L14.6656 4.83791C14.6656 3.6383 13.6811 2.66667 12.4671 2.66667H3.53228C2.31827 2.66667 1.3337 3.6383 1.3337 4.83791L1.33301 6.62324C2.13679 6.62324 2.78413 7.20691 2.78413 8.00069C2.78413 8.79448 2.13679 9.43376 1.33301 9.43376V11.1621C1.33301 12.3617 2.31688 13.3333 3.53159 13.3333H12.4678Z" stroke="#0019FF" stroke-width="1.5" stroke-linecap="round" stroke-linejoin="round"/>
</svg>
