<svg width="16" height="16" viewBox="0 0 16 16" fill="none" xmlns="http://www.w3.org/2000/svg">
<path d="M4.05958 9.99933C3.8073 9.43227 3.66666 8.8014 3.66666 8.1366C3.66666 5.66757 5.60676 3.66602 7.99999 3.66602C10.3933 3.66602 12.3333 5.66757 12.3333 8.1366C12.3333 8.8014 12.1927 9.43227 11.9404 9.99933" stroke="black" stroke-width="1.5" stroke-linecap="round"/>
<path d="M8 1.33276V1.99943" stroke="black" stroke-width="1.5" stroke-linecap="round" stroke-linejoin="round"/>
<path d="M14.6667 7.99927H14" stroke="black" stroke-width="1.5" stroke-linecap="round" stroke-linejoin="round"/>
<path d="M2.00001 7.99927H1.33334" stroke="black" stroke-width="1.5" stroke-linecap="round" stroke-linejoin="round"/>
<path d="M12.7136 3.28516L12.2422 3.75656" stroke="black" stroke-width="1.5" stroke-linecap="round" stroke-linejoin="round"/>
<path d="M3.75788 3.7573L3.28647 3.28589" stroke="black" stroke-width="1.5" stroke-linecap="round" stroke-linejoin="round"/>
<path d="M9.67799 12.8704C10.3516 12.6525 10.6217 12.036 10.6977 11.4158C10.7204 11.2306 10.568 11.0769 10.3813 11.0769L5.65123 11.077C5.45816 11.0771 5.30311 11.2409 5.32616 11.4326C5.40059 12.0515 5.58846 12.5036 6.30229 12.8704M9.67799 12.8704C9.67799 12.8704 6.4198 12.8704 6.30229 12.8704M9.67799 12.8704C9.59699 14.1671 9.22253 14.6806 8.00453 14.6662C6.70173 14.6902 6.40201 14.0555 6.30229 12.8704" stroke="black" stroke-width="1.5" stroke-linecap="round" stroke-linejoin="round"/>
</svg>
