<svg width="16" height="16" viewBox="0 0 16 16" fill="none" xmlns="http://www.w3.org/2000/svg">
<path d="M8.79847 5.33337H7.20153C4.90557 5.33337 3.35761 7.72044 4.26203 9.86631C4.38801 10.1652 4.67707 10.359 4.9969 10.359H5.55928C5.74884 10.359 5.91407 10.4902 5.96005 10.6772L6.68407 13.6219C6.835 14.236 7.37753 14.6667 8 14.6667C8.62247 14.6667 9.165 14.236 9.31593 13.6219L10.0399 10.6772C10.0859 10.4902 10.2511 10.359 10.4407 10.359H11.0031C11.3229 10.359 11.612 10.1652 11.738 9.86631C12.6424 7.72044 11.0944 5.33337 8.79847 5.33337Z" stroke="#0019FF" stroke-width="1.5"/>
<path d="M8 5.33337C9.10457 5.33337 10 4.43794 10 3.33337C10 2.2288 9.10457 1.33337 8 1.33337C6.89543 1.33337 6 2.2288 6 3.33337C6 4.43794 6.89543 5.33337 8 5.33337Z" stroke="#0019FF" stroke-width="1.5"/>
</svg>
