<svg width="357" height="83" viewBox="0 0 357 83" fill="none" xmlns="http://www.w3.org/2000/svg">
<rect x="0.25" y="0.25" width="356.5" height="82.5" rx="23.75" fill="white" stroke="#ABB0BC" stroke-width="0.5"/>
<path d="M41.1429 21.0055C41.71 21.0044 42.277 21.0037 42.8441 21.0032C43.1074 21.003 43.3706 21.0026 43.6339 21.0022C43.8878 21.0017 44.1417 21.0014 44.3956 21.0013C44.4927 21.0012 44.5897 21.0011 44.6868 21.0008C44.8223 21.0005 44.9578 21.0005 45.0934 21.0005C45.1541 21.0002 45.1541 21.0002 45.216 21C45.2712 21.0001 45.2712 21.0001 45.3275 21.0002C45.3596 21.0001 45.3917 21.0001 45.4247 21.0001C45.5036 21.0055 45.5036 21.0055 45.5908 21.0494C45.6924 21.0629 45.7941 21.0717 45.8962 21.0809C45.9832 21.0933 45.9832 21.0933 46.0268 21.1372C46.1264 21.1589 46.2265 21.1787 46.3266 21.1975C46.536 21.2376 46.7405 21.2829 46.9453 21.343C47.109 21.3902 47.2505 21.4146 47.4223 21.4006C47.4366 21.4585 47.451 21.5165 47.4659 21.5762C47.5045 21.5644 47.5432 21.5526 47.5831 21.5405C47.7275 21.5323 47.7275 21.5323 47.8474 21.6036C48.0575 21.845 48.044 22.2818 48.0327 22.5859C48.0253 22.6135 48.0179 22.6412 48.0102 22.6696C47.9872 22.7698 47.9886 22.8496 47.9959 22.9519C47.9994 23.0057 47.9994 23.0057 48.0029 23.0606C48.0082 23.1353 48.0136 23.2099 48.0189 23.2846C48.0318 23.4857 48.0259 23.6598 47.9891 23.8591C48.0035 23.8881 48.0179 23.917 48.0327 23.9469C48.0497 24.2493 48.028 24.5556 48.0137 24.8578C48.0111 24.9162 48.0111 24.9162 48.0085 24.9758C47.9982 25.1991 47.9842 25.4217 47.9672 25.6445C47.9395 26.0249 47.9308 26.4056 47.9214 26.7869C47.8952 27.8393 47.8952 27.8393 47.835 28.0783C47.8128 28.1693 47.8118 28.2451 47.8151 28.3386C47.8267 28.8309 47.7964 29.3047 47.7367 29.7933C47.6809 30.2626 47.6508 30.7317 47.6249 31.2034C47.6096 31.4791 47.5924 31.7515 47.5531 32.0248C47.7482 31.9613 47.8816 31.8518 48.0327 31.7175C48.0571 31.6975 48.0814 31.6775 48.1065 31.657C48.2789 31.5144 48.422 31.3598 48.5662 31.1888C48.6628 31.081 48.7681 30.9892 48.8797 30.8976C48.9504 30.8379 49.0149 30.7743 49.0793 30.7078C49.0793 30.7367 49.0793 30.7657 49.0793 30.7956C49.1081 30.7956 49.1369 30.7956 49.1665 30.7956C49.1728 30.7675 49.1791 30.7394 49.1856 30.7105C49.2186 30.5886 49.2963 30.5332 49.3845 30.4443C49.4133 30.4588 49.4421 30.4733 49.4718 30.4883C49.4574 30.4303 49.443 30.3723 49.4281 30.3126C49.4569 30.3126 49.4857 30.3126 49.5154 30.3126C49.5154 30.2837 49.5154 30.2547 49.5154 30.2248C49.6161 30.1959 49.7168 30.1669 49.8206 30.137C49.8254 30.0791 49.8254 30.0791 49.8303 30.0201C49.871 29.8444 49.9359 29.7683 50.0577 29.6377C50.1102 29.5801 50.1102 29.5801 50.1638 29.5214C50.2567 29.4346 50.2567 29.4346 50.3439 29.4346C50.3439 29.4056 50.3439 29.3767 50.3439 29.3468C50.4158 29.3323 50.4878 29.3178 50.5619 29.3029C50.5637 29.2712 50.5655 29.2395 50.5674 29.2069C50.6117 29.0635 50.6747 29.0165 50.791 28.9275C50.9081 28.8297 51.0013 28.7133 51.0998 28.597C51.1916 28.4903 51.2899 28.3916 51.3904 28.2932C51.4219 28.2597 51.4534 28.2262 51.4858 28.1916C51.5649 28.1176 51.5649 28.1176 51.6521 28.1176C51.662 28.0868 51.6719 28.056 51.6821 28.0243C51.7941 27.7771 51.9565 27.632 52.1672 27.47C52.3712 27.3116 52.5206 27.1365 52.6727 26.9281C52.6957 26.9005 52.7186 26.8729 52.7422 26.8444C52.771 26.8444 52.7998 26.8444 52.8294 26.8444C52.8393 26.82 52.8492 26.7955 52.8594 26.7703C52.9327 26.6404 53.0286 26.5536 53.1347 26.4493C53.1723 26.402 53.2096 26.3545 53.2464 26.3066C53.3818 26.1528 53.3818 26.1528 53.5271 26.142C53.5271 26.0985 53.5271 26.055 53.5271 26.0103C53.5541 26.0003 53.5811 25.9903 53.6089 25.9801C53.7109 25.9299 53.7109 25.9299 53.7397 25.8182C53.8066 25.661 53.9088 25.6164 54.0504 25.5273C54.0792 25.4839 54.108 25.4404 54.1376 25.3956C54.1664 25.3956 54.1952 25.3956 54.2248 25.3956C54.2248 25.3667 54.2248 25.3377 54.2248 25.3078C54.2956 25.2328 54.3685 25.1597 54.4429 25.0883C54.4793 25.0489 54.4793 25.0489 54.5165 25.0088C54.5737 24.9566 54.5737 24.9566 54.6609 24.9566C54.6609 24.9132 54.6609 24.8697 54.6609 24.8249C54.7597 24.7368 54.7597 24.7368 54.8898 24.6438C54.9323 24.6129 54.9748 24.582 55.0186 24.5502C55.1231 24.4847 55.1936 24.4425 55.315 24.4298C55.3597 24.4726 55.403 24.5168 55.4458 24.5615C55.5205 24.5927 55.5953 24.6239 55.6703 24.6543C55.8062 24.7198 55.9038 24.8084 56.0127 24.9127C56.0127 24.9417 56.0127 24.9707 56.0127 25.0005C56.0813 25.0617 56.1527 25.1198 56.2253 25.1761C56.4433 25.3462 56.4433 25.3462 56.536 25.4395C56.536 25.4975 56.536 25.5554 56.536 25.6152C56.5693 25.6251 56.6025 25.6351 56.6368 25.6453C56.7817 25.7166 56.8202 25.7752 56.8848 25.9225C56.893 26.0459 56.893 26.0459 56.8848 26.142C56.9928 26.1637 56.9928 26.1637 57.1029 26.1859C57.1029 26.2293 57.1029 26.2728 57.1029 26.3176C57.1287 26.3217 57.1546 26.3258 57.1812 26.3301C57.2987 26.3685 57.3411 26.4171 57.419 26.5124C57.4417 26.5395 57.4644 26.5666 57.4878 26.5945C57.5389 26.6688 57.5389 26.6688 57.5389 26.7566C57.5821 26.7711 57.6253 26.7856 57.6698 26.8005C57.6841 26.8295 57.6985 26.8584 57.7134 26.8883C57.7565 26.9173 57.7997 26.9463 57.8442 26.9761C57.917 27.0749 57.9641 27.1717 58.0186 27.2834C58.0042 27.3269 57.9898 27.3703 57.975 27.4151C58.0613 27.4441 58.1477 27.4731 58.2366 27.5029C58.2366 27.5609 58.2366 27.6188 58.2366 27.6785C58.2699 27.684 58.3032 27.6894 58.3375 27.695C58.4547 27.7224 58.4547 27.7224 58.5855 27.8102C58.6161 27.8828 58.6452 27.956 58.6727 28.0297C58.7015 28.0587 58.7303 28.0877 58.7599 28.1176C58.7653 28.161 58.7707 28.2045 58.7763 28.2493C58.7853 28.2927 58.7943 28.3362 58.8035 28.381C58.8886 28.4348 58.8886 28.4348 58.9779 28.4688C58.9923 28.5122 59.0067 28.5557 59.0216 28.6005C59.0647 28.615 59.1079 28.6294 59.1524 28.6444C59.138 28.6734 59.1236 28.7023 59.1088 28.7322C59.1375 28.7322 59.1663 28.7322 59.196 28.7322C59.2832 28.9407 59.2832 28.9407 59.2832 29.0395C59.312 29.054 59.3408 29.0685 59.3704 29.0834C59.383 29.1115 59.3956 29.1395 59.4086 29.1685C59.4681 29.2784 59.5211 29.2964 59.632 29.3468C59.5868 29.737 59.3971 29.9713 59.1524 30.2687C59.1225 30.3056 59.0926 30.3424 59.0618 30.3804C58.9156 30.555 58.9156 30.555 58.8471 30.62C58.8183 30.62 58.7896 30.62 58.7599 30.62C58.7599 30.6489 58.7599 30.6779 58.7599 30.7078C58.7311 30.7078 58.7024 30.7078 58.6727 30.7078C58.6628 30.7322 58.6529 30.7567 58.6427 30.7818C58.5696 30.9115 58.4733 30.9989 58.3675 31.1029C58.3369 31.1436 58.3063 31.1844 58.2748 31.2263C58.2478 31.258 58.2208 31.2897 58.193 31.3224C58.1499 31.3224 58.1067 31.3224 58.0622 31.3224C58.0505 31.3568 58.0388 31.3912 58.0268 31.4267C57.975 31.5419 57.975 31.5419 57.8442 31.6297C57.8226 31.6677 57.801 31.7058 57.7788 31.7449C57.7464 31.7966 57.7464 31.7966 57.7134 31.8492C57.6702 31.8492 57.627 31.8492 57.5825 31.8492C57.5825 31.8927 57.5825 31.9361 57.5825 31.9809C57.5538 31.9809 57.525 31.9809 57.4953 31.9809C57.4854 32.0054 57.4755 32.0298 57.4653 32.055C57.3918 32.1854 57.2978 32.2726 57.1901 32.376C57.0606 32.5029 56.9394 32.6329 56.8222 32.7711C56.6943 32.9202 56.5555 33.0401 56.4052 33.1663C56.2578 33.3246 56.1208 33.4914 55.9855 33.6602C55.8859 33.7762 55.7846 33.8637 55.6639 33.9565C55.5601 34.0497 55.535 34.0823 55.4894 34.2199C55.404 34.2911 55.3142 34.3522 55.2223 34.4147C55.1365 34.4768 55.1365 34.4768 55.1024 34.5656C55.0271 34.7088 54.9202 34.7814 54.7917 34.8784C54.763 34.8784 54.7342 34.8784 54.7045 34.8784C54.6937 34.9056 54.6829 34.9328 54.6718 34.9607C54.607 35.0718 54.5547 35.0856 54.4429 35.1418C54.4314 35.1664 54.4198 35.191 54.408 35.2163C54.3362 35.3551 54.2347 35.4618 54.1295 35.5754C54.108 35.5986 54.0866 35.6219 54.0646 35.6459C53.9092 35.8129 53.7516 35.9683 53.5708 36.1077C53.542 36.1077 53.5132 36.1077 53.4835 36.1077C53.4745 36.1321 53.4656 36.1566 53.4563 36.1818C53.3889 36.2959 53.306 36.3644 53.2035 36.4465C53.0521 36.5703 52.9247 36.711 52.8049 36.865C52.6695 37.0188 52.6695 37.0188 52.5242 37.0296C52.5242 37.0731 52.5242 37.1165 52.5242 37.1613C52.499 37.1713 52.4738 37.1812 52.4479 37.1915C52.3405 37.2464 52.3405 37.2464 52.2598 37.3644C52.232 37.3988 52.2041 37.4332 52.1753 37.4686C52.1322 37.4686 52.089 37.4686 52.0445 37.4686C52.0407 37.4942 52.0368 37.5197 52.0328 37.546C51.9926 37.6699 51.9343 37.7229 51.8401 37.8116C51.7207 37.9267 51.6098 38.0425 51.5049 38.1711C51.4671 38.2145 51.4294 38.258 51.3904 38.3028C51.3617 38.3028 51.3329 38.3028 51.3032 38.3028C51.2888 38.3462 51.2744 38.3897 51.2596 38.4345C51.2164 38.4345 51.1733 38.4345 51.1288 38.4345C51.122 38.4739 51.122 38.4739 51.1152 38.514C51.0806 38.6248 51.0452 38.6714 50.9544 38.7418C50.9112 38.7418 50.868 38.7418 50.8236 38.7418C50.7948 38.8142 50.766 38.8867 50.7363 38.9613C50.7076 38.9613 50.6788 38.9613 50.6491 38.9613C50.6491 38.9903 50.6491 39.0192 50.6491 39.0491C50.606 39.0491 50.5628 39.0491 50.5183 39.0491C50.5138 39.0751 50.5092 39.1012 50.5045 39.128C50.4703 39.2389 50.4289 39.2872 50.3466 39.3674C50.3237 39.3903 50.3008 39.4131 50.2773 39.4367C50.2131 39.4881 50.2131 39.4881 50.1258 39.4881C50.1133 39.5234 50.1007 39.5587 50.0877 39.5951C50.0386 39.7076 50.0386 39.7076 49.9514 39.7515C50.0429 39.8436 50.2178 39.8344 50.3439 39.8393C50.3741 39.8323 50.4043 39.8252 50.4355 39.818C50.6027 39.7882 50.7674 39.7893 50.9365 39.7898C50.9738 39.7897 51.0111 39.7896 51.0495 39.7895C51.1725 39.7893 51.2956 39.7895 51.4187 39.7896C51.5048 39.7896 51.5909 39.7895 51.677 39.7895C51.8578 39.7894 52.0385 39.7895 52.2192 39.7897C52.4491 39.79 52.679 39.7898 52.909 39.7896C53.087 39.7894 53.2651 39.7894 53.4432 39.7896C53.5279 39.7896 53.6125 39.7896 53.6972 39.7894C54.134 39.789 54.5674 39.7944 55.003 39.8298C55.1828 39.8423 55.3614 39.8414 55.5415 39.8397C55.7397 39.8391 55.9373 39.8492 56.1354 39.8585C56.4657 39.8732 56.7958 39.8849 57.1264 39.8913C58.0527 39.9099 58.9754 39.9533 59.9001 40.0142C60.4829 40.0524 61.0502 40.0786 61.6325 40.0177C61.6716 40.0139 61.7107 40.01 61.751 40.0061C61.9098 39.9902 62.0639 39.9731 62.2203 39.941C62.3545 39.9249 62.4112 39.9463 62.5291 40.0095C62.6982 40.0934 62.8454 40.1235 63.0333 40.1466C63.0621 40.1756 63.0909 40.2046 63.1206 40.2344C63.2363 40.2593 63.3513 40.2668 63.4694 40.2784C63.4694 40.3073 63.4694 40.3363 63.4694 40.3662C63.509 40.3788 63.5485 40.3915 63.5893 40.4046C63.8822 40.5066 63.8822 40.5066 63.9927 40.6735C64.0012 40.8208 64.0012 40.8208 63.9981 40.989C63.9973 41.0449 63.9966 41.1007 63.9957 41.1583C63.9942 41.2225 63.9942 41.2225 63.9927 41.2881C63.9495 41.2881 63.9063 41.2881 63.8619 41.2881C63.8448 41.2664 63.8277 41.2446 63.8101 41.2222C63.6802 41.114 63.5465 41.1483 63.3822 41.1564C63.3822 41.1854 63.3822 41.2143 63.3822 41.2442C63.3435 41.2491 63.3435 41.2491 63.304 41.2541C63.0291 41.3002 62.9329 41.3692 62.7717 41.5954C62.7429 41.5954 62.7141 41.5954 62.6845 41.5954C62.6851 41.6338 62.6851 41.6338 62.6857 41.6729C62.6767 41.9233 62.6245 42.0789 62.4883 42.2896C62.3331 42.5347 62.3022 42.7246 62.3036 43.0128C62.292 43.132 62.292 43.132 62.2314 43.2121C62.1612 43.2637 62.1612 43.2637 62.074 43.2966C61.9387 43.3817 61.9064 43.5134 61.856 43.6588C61.8442 43.6924 61.8325 43.726 61.8204 43.7607C61.7149 44.0637 61.7149 44.0637 61.6843 44.3804C61.6815 44.5364 61.6765 44.6247 61.5943 44.7563C61.4662 44.8057 61.4662 44.8057 61.3327 44.8441C61.2582 44.9118 61.2582 44.9118 61.2019 44.9758C61.1731 44.9758 61.1443 44.9758 61.1147 44.9758C61.1336 45.2659 61.1336 45.2659 61.2891 45.5027C61.26 45.5612 61.2309 45.6197 61.2019 45.6783C61.1902 45.7091 61.1785 45.7398 61.1664 45.7716C61.1147 45.8539 61.1147 45.8539 61.0111 45.895C60.8667 45.9539 60.8139 46.0371 60.7222 46.1612C60.6934 46.1757 60.6646 46.1902 60.635 46.2051C60.6494 46.2304 60.6638 46.2558 60.6786 46.2819C60.7222 46.3807 60.7222 46.3807 60.7222 46.5563C60.5528 46.7444 60.4219 46.8051 60.1717 46.8204C59.9741 46.8191 59.7793 46.8025 59.5876 46.7532C59.4885 46.7266 59.4885 46.7266 59.3322 46.7155C59.1635 46.6962 59.042 46.6342 58.8907 46.5563C58.7708 46.5452 58.7708 46.5452 58.6727 46.5563C58.7015 46.5418 58.7303 46.5273 58.7599 46.5124C58.7599 46.4834 58.7599 46.4545 58.7599 46.4246C58.875 46.4101 58.9902 46.3956 59.1088 46.3807C59.1088 46.3517 59.1088 46.3228 59.1088 46.2929C58.9505 46.2639 58.7922 46.2349 58.6291 46.2051C58.6291 46.1761 58.6291 46.1471 58.6291 46.1173C58.6867 46.0883 58.7442 46.0593 58.8035 46.0295C58.6035 45.9254 58.4396 45.8901 58.2148 45.8758C58.0649 45.8663 57.9432 45.8579 57.8006 45.81C57.6708 45.8001 57.5409 45.8019 57.4108 45.8017C57.3755 45.8012 57.3401 45.8007 57.3036 45.8001C57.2694 45.8 57.2351 45.7999 57.1998 45.7999C57.1531 45.7996 57.1531 45.7996 57.1054 45.7993C57.0021 45.8116 56.9312 45.8464 56.8412 45.8978C56.9276 45.9268 57.0139 45.9557 57.1029 45.9856C57.1029 46.0001 57.1029 46.0146 57.1029 46.0295C57.0688 46.0293 57.0346 46.029 56.9995 46.0288C56.8459 46.0279 56.6923 46.0273 56.5387 46.0267C56.485 46.0264 56.4313 46.026 56.376 46.0256C56.3249 46.0255 56.2739 46.0253 56.2214 46.0252C56.1741 46.025 56.1268 46.0247 56.0781 46.0245C55.9717 46.017 55.9717 46.017 55.9255 46.0734C56.0577 46.1495 56.1611 46.1736 56.3125 46.1831C56.486 46.1974 56.6346 46.2281 56.7976 46.2929C56.7976 46.3219 56.7976 46.3508 56.7976 46.3807C56.8696 46.3662 56.9415 46.3517 57.0157 46.3368C57.03 46.3658 57.0444 46.3948 57.0593 46.4246C56.5907 46.5198 56.1501 46.5301 55.6748 46.4877C55.4844 46.4715 55.3134 46.4709 55.1249 46.4983C54.9634 46.5181 54.8016 46.5257 54.6391 46.5344C54.3834 46.5484 54.1302 46.5676 53.876 46.6002C53.876 46.6147 53.876 46.6292 53.876 46.6441C53.9091 46.6468 53.9422 46.6494 53.9763 46.6522C54.0197 46.6559 54.063 46.6595 54.1077 46.6633C54.1507 46.6669 54.1937 46.6705 54.238 46.6741C54.3557 46.688 54.3557 46.688 54.4865 46.7319C54.5009 46.7754 54.5153 46.8188 54.5301 46.8636C54.4865 46.9075 54.4865 46.9075 54.3843 46.9125C54.3389 46.9123 54.2936 46.912 54.2469 46.9118C54.1956 46.9117 54.1444 46.9115 54.0916 46.9114C54.0357 46.911 53.9798 46.9106 53.9222 46.9103C53.8348 46.91 53.7474 46.9098 53.66 46.9095C53.4748 46.9089 53.2896 46.908 53.1044 46.9071C52.9526 46.9063 52.8009 46.9057 52.6491 46.9053C52.5352 46.905 52.4213 46.9044 52.3074 46.9037C52.0409 46.9029 51.7846 46.9094 51.5213 46.9514C51.5213 47.0094 51.5213 47.0673 51.5213 47.127C51.6059 47.2032 51.6932 47.2765 51.7829 47.3465C51.7973 47.3755 51.8117 47.4045 51.8265 47.4343C51.8697 47.4488 51.9128 47.4633 51.9573 47.4782C51.9699 47.5127 51.9825 47.5471 51.9955 47.5825C52.0582 47.7299 52.1254 47.7524 52.2626 47.8295C52.336 47.9019 52.4086 47.9752 52.4806 48.049C52.725 48.2778 52.9736 48.5019 53.2256 48.7222C53.2852 48.7743 53.3444 48.8267 53.4035 48.8793C53.4499 48.9206 53.4499 48.9206 53.4972 48.9627C53.5249 48.9874 53.5526 49.0121 53.5811 49.0376C53.6641 49.1102 53.6641 49.1102 53.7888 49.1904C53.7888 49.2194 53.7888 49.2484 53.7888 49.2782C53.836 49.2837 53.836 49.2837 53.8842 49.2892C54.0324 49.329 54.1125 49.3941 54.2248 49.4977C54.2392 49.5267 54.2536 49.5557 54.2685 49.5855C54.3401 49.6172 54.4128 49.6467 54.4865 49.6733C54.4865 49.7023 54.4865 49.7313 54.4865 49.7611C54.5184 49.7726 54.5503 49.7841 54.5832 49.796C54.8715 49.9219 55.0957 50.155 55.315 50.3758C55.4986 50.5298 55.683 50.6813 55.8819 50.8148C55.8819 50.8438 55.8819 50.8727 55.8819 50.9026C55.9116 50.9116 55.9413 50.9207 55.9718 50.93C56.106 50.9932 56.2013 51.0738 56.311 51.1729C56.4681 51.3079 56.6365 51.4279 56.8034 51.5503C56.9281 51.6487 57.0359 51.7544 57.1465 51.8684C57.1967 51.913 57.2475 51.957 57.2991 52.0001C57.4305 52.11 57.5497 52.229 57.6698 52.3513C57.7124 52.3944 57.7551 52.4373 57.7978 52.4803C58.0649 52.7492 58.0649 52.7492 58.13 52.8149C58.1897 52.8748 58.2499 52.934 58.3102 52.9932C58.3978 53.084 58.4701 53.1727 58.5419 53.276C58.6447 53.4181 58.7531 53.5159 58.8907 53.6245C58.9689 53.7395 59.027 53.8555 59.087 53.9812C59.1441 54.0915 59.1906 54.1592 59.2832 54.2391C59.1197 54.4531 59.1197 54.4531 59.0216 54.5025C58.9653 54.6027 58.9155 54.7052 58.8652 54.8085C58.8035 54.8977 58.8035 54.8977 58.7146 54.9374C58.6864 54.9388 58.6582 54.9402 58.6291 54.9416C58.6003 54.9126 58.5715 54.8836 58.5419 54.8537C58.4987 54.8393 58.4555 54.8248 58.4111 54.8098C58.4111 54.7809 58.4111 54.7519 58.4111 54.722C58.3756 54.7458 58.3756 54.7458 58.3394 54.7701C58.3082 54.7904 58.277 54.8108 58.2448 54.8318C58.214 54.8522 58.1831 54.8725 58.1513 54.8935C58.0622 54.9416 58.0622 54.9416 57.9314 54.9416C57.917 54.9705 57.9026 54.9995 57.8878 55.0294C57.8158 55.0149 57.7439 55.0004 57.6698 54.9855C57.6698 55.0289 57.6698 55.0724 57.6698 55.1172C57.5834 55.1027 57.4971 55.0882 57.4081 55.0733C57.3937 55.1167 57.3793 55.1602 57.3645 55.205C57.2383 55.2704 57.1194 55.2986 56.9802 55.3284C56.692 55.3981 56.4773 55.5638 56.2743 55.7757C56.1435 55.8196 56.1435 55.8196 56.0127 55.7757C56.0127 55.8047 56.0127 55.8336 56.0127 55.8635C55.883 55.9179 55.7575 55.9645 55.6203 55.9952C55.6203 56.0387 55.6203 56.0821 55.6203 56.1269C55.4036 56.2272 55.209 56.3025 54.9662 56.3025C54.9374 56.3894 54.9086 56.4764 54.8789 56.5659C54.8331 56.5605 54.8331 56.5605 54.7863 56.5549C54.6154 56.5699 54.5319 56.6341 54.3993 56.7415C54.3552 56.8144 54.3115 56.8875 54.2685 56.961C54.1594 57.0434 54.1594 57.0434 54.0504 57.0927C54.0073 57.0783 53.9641 57.0638 53.9196 57.0488C53.8908 57.1213 53.862 57.1937 53.8324 57.2683C53.7892 57.2683 53.7461 57.2683 53.7016 57.2683C53.7016 57.2973 53.7016 57.3263 53.7016 57.3562C53.6728 57.3562 53.644 57.3562 53.6144 57.3562C53.6144 57.3272 53.6144 57.2982 53.6144 57.2683C53.5917 57.28 53.5691 57.2917 53.5457 57.3037C53.1817 57.4893 53.1817 57.4893 53.0475 57.5318C53.0043 57.5173 52.9611 57.5028 52.9167 57.4879C52.931 57.4589 52.9454 57.4299 52.9603 57.4001C52.9342 57.3946 52.9081 57.3892 52.8812 57.3836C52.7858 57.3562 52.7858 57.3562 52.655 57.2683C52.655 57.2394 52.655 57.2104 52.655 57.1805C52.6118 57.1805 52.5687 57.1805 52.5242 57.1805C52.5242 57.1516 52.5242 57.1226 52.5242 57.0927C52.4954 57.0927 52.4666 57.0927 52.437 57.0927C52.3643 57.0196 52.2916 56.9464 52.219 56.8732C52.1245 56.8164 52.1245 56.8164 52.0445 56.7854C52.0445 56.7565 52.0445 56.7275 52.0445 56.6976C52.0184 56.6859 51.9924 56.6741 51.9655 56.662C51.8702 56.6099 51.8085 56.5617 51.7393 56.4781C51.7393 56.4491 51.7393 56.4202 51.7393 56.3903C51.7019 56.3724 51.7019 56.3724 51.6638 56.3541C51.563 56.3015 51.471 56.2429 51.3768 56.179C51.3426 56.1559 51.3085 56.1327 51.2732 56.1089C51.1832 56.0466 51.0945 55.983 51.0062 55.9184C50.9022 55.8445 50.8085 55.7831 50.6927 55.7318C50.6927 55.7028 50.6927 55.6738 50.6927 55.644C50.6352 55.6295 50.5776 55.615 50.5183 55.6001C50.5183 55.5711 50.5183 55.5421 50.5183 55.5123C50.4871 55.5014 50.4558 55.4904 50.4236 55.4792C50.2876 55.4188 50.1871 55.3453 50.0713 55.2516C50.0333 55.2213 49.9953 55.1911 49.9562 55.1599C49.8642 55.0733 49.8642 55.0733 49.8206 54.9416C49.748 54.912 49.6753 54.8828 49.6026 54.8537C49.5045 54.7816 49.4103 54.7087 49.3164 54.6315C49.2625 54.5878 49.2085 54.5442 49.1544 54.5006C49.1274 54.4788 49.1004 54.457 49.0725 54.4346C48.9116 54.307 48.745 54.1871 48.5788 54.0666C48.4654 53.9729 48.384 53.8726 48.2944 53.7562C48.237 53.7255 48.1788 53.6962 48.12 53.6684C48.0618 53.6099 48.0037 53.5513 47.9455 53.4928C47.9105 53.472 47.8754 53.4511 47.8392 53.4297C47.6362 53.305 47.4928 53.1227 47.3378 52.944C47.0631 52.6261 47.0631 52.6261 46.6809 52.4831C46.6763 52.9895 46.6779 53.4944 46.7027 54.0004C46.7258 54.4718 46.7275 54.9422 46.7229 55.414C46.7212 55.6704 46.7251 55.9193 46.7583 56.1735C46.7732 56.3018 46.7723 56.4287 46.7709 56.5577C46.7703 56.6287 46.7703 56.6287 46.7697 56.7012C46.7689 56.7646 46.7689 56.7646 46.7682 56.8293C46.7682 56.8873 46.7682 56.9452 46.7682 57.0049C46.7674 57.0676 46.7674 57.0676 46.7666 57.1315C46.7662 57.1785 46.7658 57.2254 46.7654 57.2738C46.7647 57.3433 46.7647 57.3433 46.7639 57.4141C46.7671 57.537 46.7759 57.6527 46.7898 57.7744C46.8205 58.0655 46.8181 58.3561 46.8172 58.6485C46.8174 58.7041 46.8176 58.7596 46.8177 58.8168C46.8177 58.8699 46.8176 58.9229 46.8176 58.9776C46.8175 59.0496 46.8175 59.0496 46.8174 59.1231C46.8118 59.2439 46.8118 59.2439 46.7682 59.3756C46.753 59.4487 46.7383 59.5218 46.7246 59.5951C46.6958 59.5951 46.667 59.5951 46.6373 59.5951C46.6491 59.6412 46.6491 59.6412 46.661 59.6883C46.6833 59.8294 46.6731 59.9398 46.651 60.0808C46.6445 60.1257 46.638 60.1706 46.6314 60.2168C46.5876 60.3619 46.5269 60.414 46.4193 60.5171C46.3762 60.6164 46.3762 60.6164 46.3512 60.7201C46.3027 60.9027 46.3027 60.9027 46.1577 61C46.1343 60.985 46.1109 60.97 46.0868 60.9546C45.9524 60.8996 45.8648 60.9173 45.7216 60.9369C45.4596 60.9632 45.2624 60.9262 45.012 60.852C44.8946 60.8247 44.8173 60.8239 44.6996 60.8436C44.5301 60.8705 44.4773 60.8507 44.3262 60.7805C44.1819 60.7545 44.0477 60.736 43.901 60.7393C43.8029 60.7366 43.8029 60.7366 43.6721 60.6488C43.6433 60.6922 43.6145 60.7357 43.5849 60.7805C43.5318 60.7642 43.4788 60.7479 43.4241 60.7311C43.2734 60.6904 43.2734 60.6904 43.127 60.7421C43.018 60.7805 43.018 60.7805 42.9349 60.7507C42.8756 60.7201 42.8169 60.6883 42.7591 60.655C42.5599 60.5441 42.4259 60.5059 42.1977 60.5335C42.1551 60.5384 42.1126 60.5433 42.0687 60.5483C42.0366 60.5525 42.0045 60.5567 41.9715 60.561C41.9571 60.532 41.9427 60.503 41.9278 60.4732C41.8991 60.4877 41.8703 60.5022 41.8406 60.5171C41.8119 60.5026 41.7831 60.4881 41.7534 60.4732C41.7534 60.4442 41.7534 60.4152 41.7534 60.3854C41.7246 60.3854 41.6959 60.3854 41.6662 60.3854C41.6662 60.4144 41.6662 60.4433 41.6662 60.4732C41.6087 60.4732 41.5511 60.4732 41.4918 60.4732C41.4918 60.4442 41.4918 60.4152 41.4918 60.3854C41.3623 60.4288 41.2328 60.4723 41.0993 60.5171C41.0993 60.5461 41.0993 60.575 41.0993 60.6049C40.9742 60.6521 40.8772 60.6458 40.7478 60.6268C40.5806 60.5928 40.5806 60.5928 40.4452 60.6488C40.4021 60.6198 40.3589 60.5908 40.3144 60.561C40.3 60.6044 40.2856 60.6479 40.2708 60.6927C40.1754 60.7284 40.1754 60.7284 40.0528 60.7366C39.8408 60.5638 39.7086 60.3842 39.6767 60.111C39.6713 60.0567 39.6659 60.0023 39.6603 59.9464C39.6459 59.9319 39.6315 59.9174 39.6167 59.9025C39.5916 59.7666 39.5718 59.6302 39.5513 59.4936C39.5417 59.3796 39.5417 59.3796 39.4859 59.3317C39.4837 59.2549 39.4843 59.1781 39.4862 59.1012C39.487 59.0537 39.4877 59.0061 39.4884 58.957C39.4904 58.857 39.4926 58.7569 39.4953 58.6569C39.4987 58.386 39.4773 58.1769 39.3807 57.9245C39.3403 57.7898 39.3708 57.6891 39.4096 57.5565C39.4939 57.2171 39.5129 56.8928 39.5255 56.5449C39.5313 56.3852 39.5385 56.2255 39.5457 56.0658C39.5494 55.982 39.5531 55.8982 39.5567 55.8144C39.566 55.6006 39.5789 55.388 39.5976 55.1748C39.6213 54.864 39.6215 54.5534 39.6222 54.2419C39.6225 54.1645 39.6225 54.1645 39.6228 54.0856C39.6227 54.0363 39.6226 53.9869 39.6225 53.9361C39.6225 53.892 39.6224 53.8478 39.6224 53.8023C39.6192 53.6673 39.6192 53.6673 39.5949 53.5309C39.5651 53.2986 39.5669 53.0693 39.5673 52.8353C39.5672 52.7588 39.5672 52.7588 39.5672 52.6808C39.5672 52.5729 39.5672 52.4649 39.5674 52.3569C39.5676 52.1949 39.5674 52.0329 39.5671 51.8708C39.567 51.2541 39.5803 50.6402 39.6167 50.0246C39.5605 50.0657 39.5044 50.1071 39.4484 50.1485C39.4172 50.1716 39.3859 50.1946 39.3538 50.2183C39.259 50.29 39.259 50.29 39.1697 50.4114C39.0839 50.5195 39.048 50.5245 38.919 50.5514C38.9046 50.5948 38.8902 50.6383 38.8754 50.6831C38.7994 50.7585 38.7994 50.7585 38.7064 50.8367C38.5771 50.9458 38.5771 50.9458 38.4581 51.0658C38.3957 51.1221 38.3957 51.1221 38.2649 51.1221C38.2507 51.1692 38.2507 51.1692 38.2363 51.2173C38.1623 51.3743 38.0666 51.4597 37.9379 51.5748C37.8951 51.6136 37.8524 51.6524 37.8084 51.6923C37.698 51.7806 37.698 51.7806 37.6108 51.7806C37.5997 51.8063 37.5886 51.832 37.5771 51.8585C37.5183 51.966 37.4543 52.0317 37.3655 52.1154C37.2306 52.247 37.1125 52.3827 36.9976 52.5324C36.8748 52.6909 36.7507 52.8185 36.5959 52.9444C36.411 53.1053 36.2579 53.2969 36.1227 53.501C36.0348 53.6338 35.9363 53.7327 35.823 53.844C35.6971 53.9851 35.5787 54.1251 35.4741 54.283C35.4453 54.283 35.4165 54.283 35.3869 54.283C35.3694 54.3251 35.3694 54.3251 35.3515 54.3681C35.2997 54.4586 35.2997 54.4586 35.1689 54.5025C35.1387 54.5753 35.1098 54.6485 35.0816 54.722C35.0075 54.8176 35.0075 54.8176 34.9208 54.9114C34.8896 54.9457 34.8583 54.9801 34.8261 55.0155C34.7953 55.049 34.7645 55.0826 34.7328 55.1172C34.5249 55.3511 34.3265 55.5917 34.1315 55.8366C34.0319 55.9551 33.9304 56.0656 33.8171 56.1708C33.7883 56.1708 33.7595 56.1708 33.7298 56.1708C33.7261 56.1964 33.7224 56.2221 33.7186 56.2485C33.6771 56.3742 33.6172 56.4233 33.5173 56.5083C33.4868 56.5347 33.4563 56.5612 33.4249 56.5884C33.3374 56.6537 33.3374 56.6537 33.2066 56.6976C33.194 56.723 33.1814 56.7483 33.1684 56.7745C33.0874 56.9376 32.9734 57.0672 32.8005 57.1284C32.7641 57.1325 32.7641 57.1325 32.7269 57.1366C32.7269 57.1656 32.7269 57.1946 32.7269 57.2244C32.5814 57.2733 32.5624 57.2599 32.4217 57.2244C32.3461 57.2285 32.3461 57.2285 32.269 57.2327C32.1164 57.2244 32.1164 57.2244 32.0128 57.1504C31.9361 57.0404 31.913 56.9618 31.8984 56.8293C31.9272 56.8148 31.9559 56.8004 31.9856 56.7854C31.9524 56.7348 31.9187 56.6846 31.8848 56.6345C31.8567 56.5925 31.8567 56.5925 31.828 56.5496C31.7674 56.4654 31.7674 56.4654 31.6367 56.4342C31.6313 56.4061 31.6259 56.3781 31.6204 56.3492C31.6114 56.3193 31.6024 56.2894 31.5931 56.2586C31.4966 56.2109 31.4966 56.2109 31.3751 56.1708C31.2715 56.1151 31.1711 56.0551 31.0699 55.9952C31.0699 55.9517 31.0699 55.9083 31.0699 55.8635C31.0411 55.8635 31.0123 55.8635 30.9826 55.8635C30.9638 55.8137 30.9449 55.7639 30.9254 55.7126C30.9011 55.661 30.8768 55.6094 30.8518 55.5562C30.8087 55.5417 30.7655 55.5272 30.721 55.5123C30.694 55.4969 30.667 55.4815 30.6392 55.4656C30.5297 55.417 30.4471 55.4178 30.3285 55.4245C30.3142 55.3375 30.2998 55.2506 30.2849 55.1611C30.2364 55.1484 30.1878 55.1357 30.1378 55.1226C29.9797 55.0733 29.9797 55.0733 29.8925 54.9855C29.7964 54.9653 29.7964 54.9653 29.6908 54.958C29.6552 54.9547 29.6195 54.9515 29.5828 54.9481C29.5555 54.9459 29.5282 54.9438 29.5 54.9416C29.4811 54.8918 29.4623 54.8419 29.4428 54.7906C29.4185 54.739 29.3942 54.6874 29.3692 54.6342C29.326 54.6198 29.2829 54.6053 29.2384 54.5903C29.1788 54.6322 29.1205 54.6761 29.064 54.722C29.0352 54.722 29.0064 54.722 28.9768 54.722C28.9768 54.6786 28.9768 54.6351 28.9768 54.5903C28.9336 54.5903 28.8904 54.5903 28.8459 54.5903C28.8459 54.4889 28.8459 54.3875 28.8459 54.283C28.774 54.312 28.702 54.341 28.6279 54.3708C28.5991 54.3419 28.5703 54.3129 28.5407 54.283C28.439 54.2812 28.3372 54.2812 28.2354 54.283C28.2067 54.2685 28.1779 54.2541 28.1482 54.2391C28.1374 54.2047 28.1266 54.1703 28.1155 54.1349C28.0394 53.9739 27.9635 53.951 27.7994 53.8879C27.6959 53.8619 27.5926 53.8391 27.4878 53.819C27.4069 53.8001 27.4069 53.8001 27.3633 53.7562C27.1522 53.749 26.9607 53.7582 26.7528 53.8001C26.7528 53.8291 26.7528 53.8581 26.7528 53.8879C26.7097 53.8879 26.6665 53.8879 26.622 53.8879C26.6166 53.9305 26.6112 53.973 26.6057 54.0169C26.5967 54.0612 26.5877 54.1056 26.5784 54.1513C26.5496 54.1658 26.5208 54.1803 26.4912 54.1952C26.448 54.1662 26.4048 54.1373 26.3604 54.1074C26.4201 53.9779 26.4859 53.8649 26.5784 53.7562C26.6072 53.7562 26.636 53.7562 26.6656 53.7562C26.6593 53.72 26.653 53.6838 26.6465 53.6465C26.6714 53.4464 26.7559 53.3686 26.8913 53.2263C26.9734 53.1427 26.9734 53.1427 27.0409 53.0431C27.0609 53.0177 27.081 52.9922 27.1017 52.966C27.1305 52.966 27.1592 52.966 27.1889 52.966C27.1999 52.9413 27.2109 52.9166 27.2223 52.8912C27.2838 52.776 27.3571 52.6829 27.4396 52.5818C27.5518 52.4434 27.6602 52.3041 27.7639 52.1593C27.8644 52.0228 27.9713 51.9293 28.1046 51.8245C28.1803 51.7427 28.2524 51.6583 28.3245 51.5733C28.4499 51.4264 28.5795 51.2836 28.7086 51.1401C28.7919 51.046 28.8724 50.9503 28.9522 50.8532C28.9891 50.8115 29.026 50.7699 29.064 50.727C29.0927 50.727 29.1215 50.727 29.1512 50.727C29.1607 50.7038 29.1703 50.6806 29.1801 50.6567C29.2598 50.5127 29.3653 50.3947 29.4728 50.2715C29.5199 50.2169 29.5669 50.1623 29.614 50.1077C29.6382 50.0797 29.6625 50.0517 29.6875 50.0228C29.7614 49.937 29.8348 49.8508 29.908 49.7644C29.9432 49.7229 29.9432 49.7229 29.979 49.6805C30.024 49.6274 30.069 49.5742 30.1139 49.5211C30.211 49.4067 30.309 49.2957 30.4158 49.1904C30.4643 49.1359 30.5125 49.081 30.5602 49.0258C30.5869 48.9949 30.6136 48.9641 30.6411 48.9323C30.7137 48.8477 30.7855 48.7626 30.8573 48.6773C30.966 48.5493 31.0808 48.43 31.2007 48.3124C31.2394 48.2716 31.278 48.2309 31.3179 48.1889C31.4187 48.0929 31.4187 48.0929 31.5059 48.0929C31.5176 48.0667 31.5294 48.0406 31.5414 48.0137C31.5933 47.917 31.6446 47.8559 31.7226 47.7799C31.7475 47.7553 31.7724 47.7307 31.7981 47.7054C31.824 47.6802 31.8499 47.6551 31.8766 47.6292C31.928 47.5789 31.9793 47.5285 32.0306 47.4781C32.0647 47.4449 32.0647 47.4449 32.0995 47.4111C32.1699 47.3397 32.1699 47.3397 32.2472 47.2148C32.276 47.2148 32.3048 47.2148 32.3344 47.2148C32.3344 47.1859 32.3344 47.1569 32.3344 47.127C32.1723 47.0891 32.0237 47.0782 31.8575 47.0795C31.8061 47.0798 31.7548 47.0801 31.7019 47.0804C31.6188 47.0812 31.6188 47.0812 31.534 47.0819C31.4755 47.0822 31.4169 47.0825 31.3583 47.0828C31.111 47.0838 30.8638 47.0853 30.6165 47.0873C29.8991 47.093 29.1915 47.0782 28.4761 47.015C28.1907 46.9902 27.9087 46.9867 27.6222 46.9926C27.3067 46.9959 26.994 46.9968 26.6792 46.9734C26.3271 46.9478 25.9766 46.9489 25.6237 46.9531C25.581 46.9534 25.5383 46.9538 25.4944 46.9542C25.4374 46.9549 25.4374 46.9549 25.3793 46.9557C25.2657 46.9513 25.1629 46.9328 25.0522 46.9075C24.9912 46.894 24.9912 46.894 24.929 46.8803C24.6034 46.7868 24.6034 46.7868 24.5206 46.6397C24.4607 46.3741 24.4696 46.0754 24.5289 45.81C24.5577 45.7955 24.5865 45.781 24.6161 45.7661C24.5873 45.7371 24.5586 45.7081 24.5289 45.6783C24.5289 45.6203 24.5289 45.5624 24.5289 45.5027C24.5577 45.5027 24.5865 45.5027 24.6161 45.5027C24.608 45.4683 24.5999 45.4339 24.5916 45.3984C24.5725 45.2832 24.5725 45.2832 24.6161 45.1954C24.5873 45.1809 24.5586 45.1664 24.5289 45.1515C24.5185 44.9554 24.5171 44.8088 24.5943 44.6274C24.6638 44.461 24.6682 44.3246 24.6613 44.1458C24.6597 44.0539 24.6597 44.0539 24.6842 43.9167C24.7074 43.7634 24.6849 43.6355 24.6597 43.4832C24.6597 43.4252 24.6597 43.3673 24.6597 43.3076C24.6885 43.3076 24.7173 43.3076 24.7469 43.3076C24.7327 43.2828 24.7185 43.258 24.7039 43.2325C24.6551 43.1214 24.6496 43.0496 24.6512 42.9289C24.6516 42.8715 24.6516 42.8715 24.6521 42.813C24.6528 42.7734 24.6535 42.7338 24.6543 42.6929C24.6547 42.6533 24.6551 42.6137 24.6555 42.5729C24.6562 42.4992 24.6572 42.4254 24.6583 42.3517C24.6596 42.2606 24.6597 42.1694 24.6597 42.0783C24.6654 41.9694 24.6718 41.8606 24.6788 41.7518C24.6823 41.6948 24.6859 41.6378 24.6895 41.5791C24.7008 41.4486 24.7194 41.3279 24.7469 41.2003C24.7569 41.1318 24.7661 41.0632 24.7742 40.9945C24.7783 40.9608 24.7825 40.9272 24.7868 40.8925C24.7977 40.8019 24.7977 40.8019 24.7469 40.7174C24.7757 40.7029 24.8045 40.6884 24.8341 40.6735C24.8301 40.5933 24.8301 40.5933 24.826 40.5116C24.8251 40.3408 24.8615 40.2416 24.965 40.1027C24.9362 40.1027 24.9074 40.1027 24.8778 40.1027C24.8914 40.0177 24.8914 40.0177 24.9214 39.9271C24.9645 39.9126 25.0077 39.8982 25.0522 39.8832C25.0666 39.8543 25.081 39.8253 25.0958 39.7954C25.1533 39.7954 25.2109 39.7954 25.2702 39.7954C25.3089 39.7809 25.3476 39.7665 25.3874 39.7515C25.5418 39.7046 25.6626 39.7021 25.8221 39.7088C25.9267 39.7106 25.9267 39.7106 26.0371 39.6862C26.2486 39.6543 26.4575 39.6574 26.6711 39.6582C26.7357 39.658 26.7357 39.658 26.8017 39.6577C26.864 39.6578 26.864 39.6578 26.9276 39.6579C26.9652 39.6579 27.0028 39.658 27.0416 39.658C27.1408 39.6635 27.224 39.6826 27.3197 39.7076C27.3827 39.7134 27.4459 39.7174 27.5091 39.72C27.5633 39.7224 27.5633 39.7224 27.6185 39.7249C27.6566 39.7264 27.6947 39.728 27.734 39.7296C27.9745 39.7403 28.2139 39.7516 28.4535 39.7762C28.6646 39.7952 28.874 39.797 29.0858 39.7954C29.4903 39.7926 29.8943 39.8009 30.2986 39.8118C30.3689 39.8137 30.4393 39.8155 30.5096 39.8173C30.6098 39.8198 30.71 39.8226 30.8103 39.8254C30.84 39.8262 30.8698 39.8269 30.9005 39.8277C31.0478 39.8322 31.1912 39.8432 31.3368 39.8649C31.498 39.8824 31.6101 39.8695 31.7676 39.8393C31.8842 39.8353 31.9996 39.8332 32.1162 39.8335C32.149 39.8335 32.1818 39.8334 32.2156 39.8334C32.2846 39.8333 32.3536 39.8334 32.4226 39.8336C32.5275 39.8338 32.6323 39.8336 32.7372 39.8333C32.8046 39.8334 32.8719 39.8334 32.9393 39.8335C32.9858 39.8334 32.9858 39.8334 33.0332 39.8332C33.2256 39.8341 33.4092 39.8526 33.599 39.8832C33.8981 39.9056 34.1789 39.857 34.4712 39.7954C34.3557 39.4827 34.1584 39.2953 33.9043 39.093C33.9474 39.064 33.9906 39.0351 34.0351 39.0052C33.9991 38.997 33.9631 38.9889 33.9261 38.9805C33.6426 38.8633 33.4388 38.6607 33.2938 38.3906C33.2623 38.3589 33.2308 38.3272 33.1984 38.2945C33.1194 38.215 33.1194 38.215 33.1194 38.1272C33.0843 38.1136 33.0843 38.1136 33.0485 38.0997C32.8576 37.9885 32.7175 37.8277 32.5961 37.6442C32.5191 37.5755 32.4392 37.5113 32.3588 37.4467C32.2908 37.3808 32.2908 37.3808 32.2472 37.2491C32.16 37.1961 32.16 37.1961 32.0728 37.1613C32.0728 37.1179 32.0728 37.0744 32.0728 37.0296C32.0296 37.0296 31.9865 37.0296 31.942 37.0296C31.9321 36.9952 31.9222 36.9608 31.912 36.9254C31.8663 36.8013 31.8663 36.8013 31.7512 36.769C31.5935 36.7047 31.5508 36.6014 31.4623 36.4589C31.4191 36.4299 31.376 36.4009 31.3315 36.3711C31.3315 36.3276 31.3315 36.2842 31.3315 36.2394C31.2595 36.2104 31.1876 36.1814 31.1135 36.1516C31.1135 36.1081 31.1135 36.0647 31.1135 36.0199C31.0874 36.009 31.0613 35.9981 31.0344 35.987C30.9256 35.9244 30.8827 35.8564 30.8082 35.7565C30.7812 35.7429 30.7543 35.7293 30.7265 35.7153C30.5954 35.6494 30.5118 35.5593 30.4158 35.4492C30.4158 35.4057 30.4158 35.3622 30.4158 35.3174C30.3904 35.3138 30.3649 35.3101 30.3388 35.3063C30.213 35.264 30.163 35.202 30.0778 35.1007C30.0511 35.0695 30.0243 35.0383 29.9967 35.0062C29.9361 34.9223 29.9361 34.9223 29.9361 34.8345C29.9073 34.8345 29.8785 34.8345 29.8489 34.8345C29.8489 34.8056 29.8489 34.7766 29.8489 34.7467C29.8201 34.7467 29.7913 34.7467 29.7617 34.7467C29.6908 34.6864 29.6908 34.6864 29.6308 34.615C29.6308 34.586 29.6308 34.5571 29.6308 34.5272C29.5877 34.5127 29.5445 34.4982 29.5 34.4833C29.4263 34.3964 29.3536 34.3086 29.282 34.2199C29.2532 34.2054 29.2244 34.1909 29.1948 34.176C29.1657 34.1028 29.1366 34.0297 29.1076 33.9565C29.0788 33.942 29.05 33.9275 29.0204 33.9126C29.0204 33.8836 29.0204 33.8546 29.0204 33.8248C28.9628 33.8103 28.9052 33.7958 28.8459 33.7809C28.8459 33.7519 28.8459 33.7229 28.8459 33.6931C28.82 33.6813 28.7941 33.6695 28.7675 33.6573C28.6711 33.605 28.6084 33.5525 28.5317 33.4746C28.5062 33.4489 28.4808 33.4233 28.4546 33.3968C28.4281 33.3696 28.4017 33.3424 28.3744 33.3144C28.3471 33.2866 28.3198 33.2588 28.2916 33.2302C28.1289 33.0637 27.9718 32.894 27.8219 32.7156C27.7496 32.6323 27.6733 32.5551 27.595 32.4776C27.4789 32.3623 27.3711 32.2466 27.2761 32.1126C27.2761 32.0836 27.2761 32.0547 27.2761 32.0248C27.2507 32.0139 27.2253 32.003 27.1991 31.9917C27.0879 31.9293 27.0216 31.8606 26.9382 31.7641C26.9114 31.7339 26.8846 31.7036 26.8571 31.6724C26.7964 31.5858 26.7964 31.5858 26.7964 31.4541C26.7533 31.4541 26.7101 31.4541 26.6656 31.4541C26.5029 31.3076 26.3687 31.14 26.2295 30.9712C26.1796 30.9223 26.1796 30.9223 26.1287 30.8724C26.0551 30.7956 26.0551 30.7956 26.0551 30.7078C26.012 30.6933 25.9688 30.6788 25.9243 30.6639C25.8647 30.5919 25.8068 30.5185 25.7499 30.4443C25.7148 30.409 25.6797 30.3737 25.6436 30.3373C25.5223 30.2153 25.4144 30.1015 25.3138 29.9614C25.322 29.8572 25.322 29.8572 25.3574 29.7858C25.3304 29.794 25.3035 29.8021 25.2757 29.8105C25.183 29.8297 25.183 29.8297 25.0958 29.7858C25.0667 29.7273 25.0376 29.6688 25.0086 29.6102C24.9798 29.5957 24.951 29.5812 24.9214 29.5663C24.9214 29.5373 24.9214 29.5084 24.9214 29.4785C24.8968 29.4693 24.8722 29.4602 24.8469 29.4507C24.7094 29.3682 24.6374 29.262 24.5425 29.1328C24.5082 29.0867 24.4738 29.0407 24.4385 28.9932C24.3675 28.884 24.3288 28.8151 24.3109 28.6883C24.2821 28.6883 24.2533 28.6883 24.2237 28.6883C24.0372 28.3672 23.9566 28.1262 24.023 27.7578C24.0492 27.6785 24.0492 27.6785 24.1364 27.6346C24.1634 27.5817 24.1634 27.5817 24.191 27.5276C24.2899 27.3818 24.3628 27.3778 24.5289 27.3273C24.6224 27.2723 24.7122 27.2134 24.8021 27.1527C24.8778 27.1078 24.8778 27.1078 24.965 27.1078C24.965 27.0788 24.965 27.0499 24.965 27.02C25.0081 27.0055 25.0513 26.991 25.0958 26.9761C25.1246 27.0196 25.1533 27.063 25.183 27.1078C25.1956 27.0589 25.2082 27.01 25.2212 26.9596C25.2566 26.8737 25.2566 26.8737 25.3138 26.8005C25.4236 26.7662 25.5295 26.7534 25.6434 26.7386C25.8179 26.6961 25.8685 26.5948 25.9679 26.4493C26.0987 26.3615 26.0987 26.3615 26.2295 26.3615C26.2511 26.2963 26.2511 26.2963 26.2732 26.2298C26.3811 26.208 26.3811 26.208 26.4912 26.1859C26.5128 26.1207 26.5128 26.1207 26.5348 26.0542C26.6043 26.006 26.6043 26.006 26.6874 25.9636C26.8108 25.9038 26.8108 25.9038 26.8836 25.7908C26.9124 25.7908 26.9412 25.7908 26.9709 25.7908C26.9709 25.7618 26.9709 25.7328 26.9709 25.703C27.041 25.6948 27.041 25.6948 27.1126 25.6865C27.251 25.6633 27.3313 25.6379 27.4505 25.5712C27.4793 25.5712 27.5081 25.5712 27.5377 25.5712C27.5575 25.5287 27.5773 25.4861 27.5977 25.4423C27.6686 25.3078 27.6686 25.3078 27.7558 25.2639C27.8723 25.258 27.9879 25.262 28.1046 25.2639C28.1046 25.206 28.1046 25.148 28.1046 25.0883C28.1478 25.0738 28.191 25.0594 28.2354 25.0444C28.2498 25.0155 28.2642 24.9865 28.279 24.9566C28.3787 24.9288 28.3787 24.9288 28.4998 24.9072C28.5399 24.8999 28.58 24.8925 28.6213 24.8849C28.6677 24.877 28.6677 24.877 28.7151 24.8688C28.7151 24.8398 28.7151 24.8109 28.7151 24.781C28.8015 24.7955 28.8878 24.81 28.9768 24.8249C28.9768 24.7815 28.9768 24.738 28.9768 24.6932C29.0487 24.6932 29.1207 24.6932 29.1948 24.6932C29.2164 24.628 29.2164 24.628 29.2384 24.5615C29.3871 24.5615 29.5275 24.5831 29.6745 24.6054C29.6888 24.6489 29.7032 24.6923 29.7181 24.7371C29.7612 24.7371 29.8044 24.7371 29.8489 24.7371C30.0358 24.874 30.1791 25.0316 30.328 25.2085C30.4665 25.3652 30.6172 25.5092 30.7672 25.6546C30.8518 25.7469 30.8518 25.7469 30.8518 25.8347C30.8806 25.8347 30.9094 25.8347 30.939 25.8347C30.9941 25.9103 30.9941 25.9103 31.0562 26.013C31.1484 26.1587 31.2415 26.2767 31.3669 26.3944C31.4864 26.5081 31.5443 26.584 31.5495 26.7566C31.5927 26.7711 31.6359 26.7856 31.6803 26.8005C31.6803 26.8295 31.6803 26.8584 31.6803 26.8883C31.7379 26.9028 31.7955 26.9173 31.8548 26.9322C31.8692 26.9902 31.8836 27.0481 31.8984 27.1078C31.9272 27.1078 31.9559 27.1078 31.9856 27.1078C31.9856 27.1368 31.9856 27.1658 31.9856 27.1956C32.0288 27.2101 32.0719 27.2246 32.1164 27.2395C32.1259 27.2816 32.1259 27.2816 32.1355 27.3246C32.1436 27.3545 32.1517 27.3843 32.16 27.4151C32.1888 27.4296 32.2176 27.4441 32.2472 27.459C32.276 27.4735 32.3048 27.488 32.3344 27.5029C32.349 27.5615 32.3635 27.62 32.378 27.6785C32.4353 27.7094 32.4937 27.7384 32.5525 27.7663C32.6764 27.8812 32.7859 28.0038 32.8931 28.134C33.0164 28.2812 33.1533 28.4041 33.2984 28.529C33.5735 28.7671 33.5735 28.7671 33.6454 28.916C33.6805 29.004 33.6805 29.004 33.7762 29.0395C33.8041 29.054 33.8319 29.0685 33.8607 29.0834C33.8752 29.1419 33.8897 29.2005 33.9043 29.259C33.962 29.2891 34.0202 29.3182 34.0787 29.3468C34.3509 29.5571 34.5682 29.8064 34.7791 30.0767C34.8733 30.1928 34.9751 30.2958 35.0816 30.4004C35.1543 30.4736 35.227 30.5468 35.2997 30.62C35.3509 30.6702 35.3509 30.6702 35.4032 30.7215C35.4958 30.8169 35.5817 30.9137 35.6676 31.0151C35.763 31.1269 35.8575 31.2235 35.9729 31.3142C36.0097 31.3458 36.0466 31.3775 36.0846 31.4102C36.0846 31.4537 36.0846 31.4971 36.0846 31.5419C36.1101 31.5532 36.1356 31.5645 36.1619 31.5762C36.2667 31.6339 36.3345 31.697 36.4171 31.7834C36.4428 31.8101 36.4686 31.8368 36.4951 31.8643C36.5179 31.8883 36.5407 31.9123 36.5643 31.937C36.593 31.966 36.6218 31.995 36.6515 32.0248C36.6839 32.0583 36.7162 32.0918 36.7496 32.1263C36.8362 32.2115 36.92 32.2867 37.014 32.3623C37.0526 32.3958 37.0913 32.4293 37.1311 32.4638C37.1311 32.4928 37.1311 32.5218 37.1311 32.5516C37.1572 32.5625 37.1833 32.5734 37.2102 32.5846C37.3194 32.6474 37.3701 32.7083 37.4364 32.815C37.4364 32.844 37.4364 32.873 37.4364 32.9028C37.4863 32.9191 37.4863 32.9191 37.5372 32.9358C37.6675 32.9968 37.7031 33.0513 37.7852 33.1663C37.8127 33.1796 37.8401 33.1929 37.8684 33.2066C37.9692 33.259 38.0173 33.3108 38.0878 33.3995C38.2304 33.5734 38.3772 33.7317 38.5538 33.8714C38.6521 33.9521 38.7206 34.0246 38.7882 34.1321C38.7882 34.1611 38.7882 34.1901 38.7882 34.2199C38.8161 34.2317 38.844 34.2434 38.8727 34.2556C38.9626 34.3077 38.9626 34.3077 39.0062 34.4394C39.035 34.4394 39.0638 34.4394 39.0934 34.4394C39.158 34.507 39.158 34.507 39.2324 34.5986C39.3548 34.744 39.4812 34.8647 39.6274 34.9849C39.7139 35.0631 39.7852 35.1479 39.8593 35.2379C39.9825 35.3849 40.0946 35.4586 40.2708 35.537C40.2996 35.5804 40.3284 35.6239 40.358 35.6687C40.358 35.6216 40.358 35.5745 40.358 35.526C40.358 35.2897 40.3638 35.1125 40.4452 34.8921C40.4912 34.7387 40.5085 34.5964 40.5217 34.4374C40.5324 34.3516 40.5324 34.3516 40.576 34.2638C40.6048 34.2638 40.6336 34.2638 40.6633 34.2638C40.6777 34.1769 40.692 34.09 40.7069 34.0004C40.6781 33.9859 40.6493 33.9714 40.6197 33.9565C40.6628 33.9565 40.706 33.9565 40.7505 33.9565C40.7505 33.9275 40.7505 33.8985 40.7505 33.8687C40.7217 33.8687 40.6929 33.8687 40.6633 33.8687C40.6496 33.8074 40.636 33.7461 40.6224 33.6848C40.611 33.6337 40.611 33.6337 40.5994 33.5814C40.5917 33.5458 40.584 33.5102 40.576 33.4736C40.5671 33.4392 40.5581 33.4048 40.5488 33.3693C40.528 33.2229 40.5485 33.1004 40.5733 32.955C40.5861 32.8785 40.5861 32.8785 40.599 32.8005C40.6058 32.7618 40.6126 32.7232 40.6197 32.6833C40.634 32.7123 40.6484 32.7413 40.6633 32.7711C40.692 32.7711 40.7208 32.7711 40.7505 32.7711C40.7505 32.7422 40.7505 32.7132 40.7505 32.6833C40.7793 32.6833 40.808 32.6833 40.8377 32.6833C40.8377 32.6399 40.8377 32.5964 40.8377 32.5516C40.8665 32.5516 40.8952 32.5516 40.9249 32.5516C40.9105 32.4792 40.8961 32.4068 40.8813 32.3321C40.8525 32.3321 40.8237 32.3321 40.7941 32.3321C40.7797 32.4191 40.7653 32.506 40.7505 32.5955C40.7217 32.5955 40.6929 32.5955 40.6633 32.5955C40.6609 32.4675 40.6592 32.3395 40.6578 32.2114C40.6571 32.1752 40.6564 32.139 40.6556 32.1016C40.6553 32.0666 40.655 32.0315 40.6547 31.9953C40.6543 31.9631 40.6538 31.9309 40.6534 31.8978C40.6647 31.7922 40.6985 31.7213 40.7505 31.6297C40.7793 31.6442 40.808 31.6587 40.8377 31.6736C40.8377 31.7315 40.8377 31.7895 40.8377 31.8492C40.8665 31.8492 40.8952 31.8492 40.9249 31.8492C40.9302 31.8237 40.9355 31.7983 40.9409 31.772C40.9751 31.6117 41.0106 31.4584 41.0639 31.3032C41.113 31.1927 41.113 31.1927 41.0557 31.1029C41.0631 31.0224 41.074 30.9423 41.0866 30.8624C41.0941 30.8126 41.1017 30.7628 41.1095 30.7114C41.1178 30.6577 41.1262 30.604 41.1348 30.5486C41.2048 30.081 41.2583 29.6156 41.2914 29.1439C41.2943 29.1031 41.2972 29.0622 41.3002 29.0201C41.3036 28.9667 41.3036 28.9667 41.3072 28.9121C41.3174 28.82 41.3174 28.82 41.361 28.6883C41.3583 28.6217 41.3583 28.6217 41.3555 28.5538C41.3624 28.3347 41.4225 28.1484 41.4918 27.9419C41.463 27.9419 41.4342 27.9419 41.4046 27.9419C41.3966 27.7099 41.4122 27.5475 41.4918 27.3273C41.4918 27.2694 41.4918 27.2114 41.4918 27.1517C41.4342 27.1517 41.3767 27.1517 41.3174 27.1517C41.303 27.1952 41.2886 27.2386 41.2738 27.2834C41.2306 27.2689 41.1874 27.2544 41.1429 27.2395C41.112 26.9968 41.0861 26.7786 41.1429 26.5371C41.1717 26.5371 41.2005 26.5371 41.2301 26.5371C41.2301 26.5081 41.2301 26.4791 41.2301 26.4493C41.2589 26.4493 41.2877 26.4493 41.3174 26.4493C41.3021 26.4176 41.2868 26.3859 41.271 26.3533C41.2256 26.2161 41.2349 26.1472 41.2738 26.0103C41.245 25.9958 41.2162 25.9813 41.1865 25.9664C41.117 25.6653 41.1391 25.3516 41.1429 25.0444C41.1717 25.0444 41.2005 25.0444 41.2301 25.0444C41.2158 25.0155 41.2014 24.9865 41.1865 24.9566C41.1834 24.8464 41.1825 24.7375 41.1838 24.6274C41.184 24.5971 41.1842 24.5668 41.1844 24.5356C41.1849 24.4564 41.1857 24.3773 41.1865 24.2981C41.1865 24.2691 41.1865 24.2401 41.1865 24.2103C41.1974 24.0549 41.209 23.8995 41.2206 23.7442C41.2275 23.6363 41.2301 23.5281 41.2301 23.4201C41.2377 23.3477 41.2459 23.2755 41.2547 23.2033C41.2714 23.0434 41.2691 22.9183 41.2301 22.7615C41.2301 22.6737 41.2301 22.5859 41.2301 22.4981C41.2221 22.471 41.214 22.4438 41.2056 22.4158C41.1849 22.3147 41.1938 22.2458 41.2083 22.1442C41.2422 21.9759 41.2422 21.9759 41.1865 21.8396C41.2153 21.8396 41.2441 21.8396 41.2738 21.8396C41.2595 21.8086 41.2452 21.7777 41.2305 21.7458C41.1829 21.6096 41.1777 21.5086 41.1811 21.3649C41.1819 21.3221 41.1827 21.2792 41.1835 21.2351C41.185 21.1866 41.185 21.1866 41.1865 21.1372C41.1578 21.1227 41.129 21.1082 41.0993 21.0933C41.1137 21.0643 41.1281 21.0353 41.1429 21.0055ZM41.7534 28.9517C41.797 29.0395 41.797 29.0395 41.797 29.0395L41.7534 28.9517ZM41.7098 29.6102C41.7534 29.698 41.7534 29.698 41.7534 29.698L41.7098 29.6102ZM42.6692 59.2878C42.6835 59.3748 42.6979 59.4617 42.7128 59.5512C42.8381 59.4947 42.9275 59.4365 43.018 59.3317C43.018 59.3172 43.018 59.3028 43.018 59.2878C42.9029 59.2878 42.7878 59.2878 42.6692 59.2878ZM43.8465 59.5073C43.7868 59.7057 43.826 59.8405 43.8901 60.0342C43.9333 60.0342 43.9765 60.0342 44.021 60.0342C44.0294 59.9629 44.0376 59.8915 44.0455 59.8201C44.05 59.7804 44.0546 59.7407 44.0593 59.6998C44.0731 59.5944 44.0731 59.5944 44.021 59.5073C43.9634 59.5073 43.9058 59.5073 43.8465 59.5073Z" fill="#0019FF"/>
<path d="M83.233 23.2812V20.6364H98.9929V23.2812H92.6392V41H89.5767V23.2812H83.233ZM102.366 46.7273C101.922 46.7273 101.518 46.6908 101.153 46.6179C100.788 46.5516 100.517 46.4787 100.338 46.3991L101.054 43.9631C101.597 44.1089 102.081 44.1719 102.505 44.152C102.93 44.1321 103.304 43.973 103.629 43.6747C103.96 43.3764 104.252 42.8892 104.504 42.2131L104.872 41.1989L99.2837 25.7273H102.466L106.333 37.5795H106.493L110.36 25.7273H113.552L107.258 43.0384C106.967 43.8338 106.595 44.5066 106.145 45.0568C105.694 45.6136 105.157 46.0313 104.534 46.3097C103.911 46.5881 103.188 46.7273 102.366 46.7273ZM116.346 46.7273V25.7273H119.25V28.2031H119.498C119.671 27.8849 119.919 27.517 120.244 27.0994C120.569 26.6818 121.02 26.3172 121.596 26.0057C122.173 25.6875 122.935 25.5284 123.883 25.5284C125.116 25.5284 126.217 25.84 127.184 26.4631C128.152 27.0862 128.911 27.9844 129.461 29.1577C130.018 30.331 130.297 31.7429 130.297 33.3935C130.297 35.044 130.021 36.4593 129.471 37.6392C128.921 38.8125 128.165 39.7173 127.204 40.3537C126.243 40.9834 125.146 41.2983 123.913 41.2983C122.985 41.2983 122.226 41.1425 121.636 40.831C121.053 40.5194 120.595 40.1548 120.264 39.7372C119.932 39.3196 119.677 38.9484 119.498 38.6236H119.319V46.7273H116.346ZM119.26 33.3636C119.26 34.4375 119.415 35.3788 119.727 36.1875C120.038 36.9962 120.489 37.6293 121.079 38.0866C121.669 38.5374 122.392 38.7628 123.247 38.7628C124.135 38.7628 124.877 38.5275 125.474 38.0568C126.071 37.5795 126.521 36.9332 126.826 36.1179C127.138 35.3026 127.294 34.3845 127.294 33.3636C127.294 32.3561 127.141 31.4512 126.836 30.6491C126.538 29.8471 126.087 29.214 125.484 28.75C124.887 28.286 124.142 28.054 123.247 28.054C122.385 28.054 121.656 28.276 121.059 28.7202C120.469 29.1643 120.022 29.7841 119.717 30.5795C119.412 31.375 119.26 32.303 119.26 33.3636ZM140.061 41.3082C138.629 41.3082 137.379 40.9801 136.312 40.3239C135.245 39.6676 134.416 38.7495 133.826 37.5696C133.236 36.3897 132.941 35.0109 132.941 33.4332C132.941 31.849 133.236 30.4635 133.826 29.277C134.416 28.0904 135.245 27.169 136.312 26.5128C137.379 25.8565 138.629 25.5284 140.061 25.5284C141.493 25.5284 142.742 25.8565 143.809 26.5128C144.877 27.169 145.705 28.0904 146.295 29.277C146.885 30.4635 147.18 31.849 147.18 33.4332C147.18 35.0109 146.885 36.3897 146.295 37.5696C145.705 38.7495 144.877 39.6676 143.809 40.3239C142.742 40.9801 141.493 41.3082 140.061 41.3082ZM140.071 38.8125C140.999 38.8125 141.768 38.5672 142.377 38.0767C142.987 37.5862 143.438 36.9332 143.73 36.1179C144.028 35.3026 144.177 34.4044 144.177 33.4233C144.177 32.4489 144.028 31.554 143.73 30.7386C143.438 29.9167 142.987 29.2571 142.377 28.7599C141.768 28.2628 140.999 28.0142 140.071 28.0142C139.136 28.0142 138.36 28.2628 137.744 28.7599C137.134 29.2571 136.68 29.9167 136.382 30.7386C136.09 31.554 135.944 32.4489 135.944 33.4233C135.944 34.4044 136.09 35.3026 136.382 36.1179C136.68 36.9332 137.134 37.5862 137.744 38.0767C138.36 38.5672 139.136 38.8125 140.071 38.8125ZM161.22 20.6364V41H158.147V20.6364H161.22ZM168.429 31.9318V41H165.456V25.7273H168.309V28.2131H168.498C168.85 27.4044 169.4 26.7547 170.149 26.2642C170.904 25.7737 171.856 25.5284 173.002 25.5284C174.043 25.5284 174.955 25.7472 175.737 26.1847C176.519 26.6155 177.126 27.2585 177.556 28.1136C177.987 28.9687 178.203 30.026 178.203 31.2855V41H175.23V31.6435C175.23 30.5365 174.941 29.6714 174.365 29.0483C173.788 28.4186 172.996 28.1037 171.988 28.1037C171.299 28.1037 170.686 28.2528 170.149 28.5511C169.618 28.8494 169.198 29.2869 168.886 29.8636C168.581 30.4337 168.429 31.1231 168.429 31.9318ZM189.319 25.7273V28.1136H180.977V25.7273H189.319ZM183.214 22.0682H186.187V36.5156C186.187 37.0923 186.273 37.5265 186.446 37.8182C186.618 38.1032 186.84 38.2988 187.112 38.4048C187.39 38.5043 187.692 38.554 188.017 38.554C188.255 38.554 188.464 38.5374 188.643 38.5043C188.822 38.4711 188.961 38.4446 189.061 38.4247L189.598 40.8807C189.425 40.947 189.18 41.0133 188.862 41.0795C188.544 41.1525 188.146 41.1922 187.669 41.1989C186.886 41.2121 186.157 41.0729 185.481 40.7812C184.805 40.4896 184.258 40.0388 183.841 39.429C183.423 38.8191 183.214 38.0535 183.214 37.1321V22.0682ZM199.026 41.3082C197.522 41.3082 196.226 40.9867 195.138 40.3438C194.058 39.6941 193.223 38.7827 192.633 37.6094C192.049 36.4295 191.758 35.0473 191.758 33.4631C191.758 31.8987 192.049 30.5199 192.633 29.3267C193.223 28.1335 194.045 27.2022 195.099 26.5327C196.159 25.8632 197.399 25.5284 198.817 25.5284C199.679 25.5284 200.514 25.6709 201.323 25.956C202.132 26.241 202.858 26.6884 203.501 27.2983C204.144 27.9081 204.651 28.7003 205.022 29.6747C205.393 30.6425 205.579 31.8191 205.579 33.2045V34.2585H193.438V32.0312H202.665C202.665 31.2491 202.506 30.5563 202.188 29.9531C201.87 29.3433 201.423 28.8627 200.846 28.5114C200.276 28.16 199.606 27.9844 198.837 27.9844C198.002 27.9844 197.273 28.1899 196.65 28.6009C196.033 29.0052 195.556 29.5355 195.218 30.1918C194.887 30.8414 194.721 31.5473 194.721 32.3097V34.0497C194.721 35.0705 194.9 35.9389 195.258 36.6548C195.622 37.3707 196.129 37.9176 196.779 38.2955C197.429 38.6667 198.188 38.8523 199.056 38.8523C199.62 38.8523 200.133 38.7727 200.597 38.6136C201.061 38.4479 201.462 38.2027 201.8 37.8778C202.138 37.553 202.397 37.152 202.576 36.6747L205.39 37.1818C205.165 38.0104 204.76 38.7363 204.177 39.3594C203.6 39.9759 202.874 40.4564 201.999 40.8011C201.131 41.1392 200.14 41.3082 199.026 41.3082ZM208.877 41V25.7273H211.751V28.1534H211.91C212.189 27.3314 212.679 26.6851 213.382 26.2145C214.091 25.7372 214.893 25.4986 215.788 25.4986C215.974 25.4986 216.192 25.5052 216.444 25.5185C216.703 25.5317 216.905 25.5483 217.051 25.5682V28.4119C216.931 28.3788 216.719 28.3423 216.414 28.3026C216.109 28.2562 215.805 28.233 215.5 28.233C214.797 28.233 214.171 28.3821 213.62 28.6804C213.077 28.9721 212.646 29.3797 212.328 29.9034C212.01 30.4205 211.85 31.0104 211.85 31.6733V41H208.877ZM222.597 31.9318V41H219.624V25.7273H222.477V28.2131H222.666C223.018 27.4044 223.568 26.7547 224.317 26.2642C225.072 25.7737 226.024 25.5284 227.17 25.5284C228.211 25.5284 229.123 25.7472 229.905 26.1847C230.687 26.6155 231.294 27.2585 231.724 28.1136C232.155 28.9687 232.371 30.026 232.371 31.2855V41H229.398V31.6435C229.398 30.5365 229.109 29.6714 228.533 29.0483C227.956 28.4186 227.164 28.1037 226.156 28.1037C225.467 28.1037 224.854 28.2528 224.317 28.5511C223.786 28.8494 223.366 29.2869 223.054 29.8636C222.749 30.4337 222.597 31.1231 222.597 31.9318ZM240.803 41.3381C239.835 41.3381 238.96 41.1591 238.178 40.8011C237.395 40.4366 236.776 39.9096 236.318 39.2202C235.867 38.5308 235.642 37.6856 235.642 36.6847C235.642 35.8229 235.808 35.1136 236.139 34.5568C236.471 34 236.918 33.5592 237.482 33.2344C238.045 32.9096 238.675 32.6643 239.371 32.4986C240.067 32.3329 240.776 32.2069 241.499 32.1207C242.413 32.0147 243.156 31.9285 243.726 31.8622C244.296 31.7893 244.71 31.6733 244.969 31.5142C245.227 31.3551 245.357 31.0966 245.357 30.7386V30.669C245.357 29.8007 245.111 29.1278 244.621 28.6506C244.137 28.1733 243.414 27.9347 242.453 27.9347C241.452 27.9347 240.663 28.1567 240.087 28.6009C239.517 29.0384 239.122 29.5256 238.903 30.0625L236.109 29.4261C236.441 28.4981 236.925 27.7491 237.561 27.179C238.204 26.6023 238.943 26.1847 239.778 25.9261C240.614 25.661 241.492 25.5284 242.413 25.5284C243.023 25.5284 243.67 25.6013 244.352 25.7472C245.042 25.8864 245.685 26.1449 246.281 26.5227C246.884 26.9006 247.378 27.4408 247.763 28.1435C248.147 28.8395 248.339 29.7443 248.339 30.858V41H245.436V38.9119H245.317C245.125 39.2964 244.836 39.6742 244.452 40.0455C244.067 40.4167 243.573 40.7249 242.97 40.9702C242.367 41.2154 241.644 41.3381 240.803 41.3381ZM241.449 38.9517C242.271 38.9517 242.973 38.7893 243.557 38.4645C244.147 38.1397 244.594 37.7154 244.899 37.1918C245.211 36.6615 245.366 36.0947 245.366 35.4915V33.5227C245.26 33.6288 245.055 33.7282 244.75 33.821C244.452 33.9072 244.11 33.9834 243.726 34.0497C243.341 34.1094 242.967 34.1657 242.602 34.2188C242.238 34.2652 241.933 34.3049 241.688 34.3381C241.111 34.411 240.584 34.5336 240.107 34.706C239.636 34.8783 239.258 35.1269 238.973 35.4517C238.695 35.7699 238.555 36.1941 238.555 36.7244C238.555 37.4602 238.827 38.017 239.371 38.3949C239.914 38.7661 240.607 38.9517 241.449 38.9517ZM255.272 20.6364V41H252.299V20.6364H255.272Z" fill="black"/>
<path opacity="0.5" d="M84.1307 62.1136V66H82.8565V57.2727H84.1136V60.5199H84.1946C84.348 60.1676 84.5824 59.8878 84.8977 59.6804C85.2131 59.473 85.625 59.3693 86.1335 59.3693C86.5824 59.3693 86.9744 59.4616 87.3097 59.6463C87.6477 59.831 87.9091 60.1065 88.0938 60.473C88.2812 60.8366 88.375 61.2912 88.375 61.8366V66H87.1009V61.9901C87.1009 61.5099 86.9773 61.1378 86.7301 60.8736C86.483 60.6065 86.1392 60.473 85.6989 60.473C85.3977 60.473 85.1278 60.5369 84.8892 60.6648C84.6534 60.7926 84.4673 60.9801 84.331 61.2273C84.1974 61.4716 84.1307 61.767 84.1307 62.1136ZM91.9801 66.1449C91.5653 66.1449 91.1903 66.0682 90.8551 65.9148C90.5199 65.7585 90.2543 65.5327 90.0582 65.2372C89.8651 64.9418 89.7685 64.5795 89.7685 64.1506C89.7685 63.7812 89.8395 63.4773 89.9815 63.2386C90.1236 63 90.3153 62.8111 90.5568 62.6719C90.7983 62.5327 91.0682 62.4276 91.3665 62.3565C91.6648 62.2855 91.9688 62.2315 92.2784 62.1946C92.6705 62.1491 92.9886 62.1122 93.233 62.0838C93.4773 62.0526 93.6548 62.0028 93.7656 61.9347C93.8764 61.8665 93.9318 61.7557 93.9318 61.6023V61.5724C93.9318 61.2003 93.8267 60.9119 93.6165 60.7074C93.4091 60.5028 93.0994 60.4006 92.6875 60.4006C92.2585 60.4006 91.9205 60.4957 91.6733 60.6861C91.429 60.8736 91.2599 61.0824 91.1662 61.3125L89.9688 61.0398C90.1108 60.642 90.3182 60.321 90.5909 60.0767C90.8665 59.8295 91.1832 59.6506 91.5412 59.5398C91.8991 59.4261 92.2756 59.3693 92.6705 59.3693C92.9318 59.3693 93.2088 59.4006 93.5014 59.4631C93.7969 59.5227 94.0724 59.6335 94.3281 59.7955C94.5866 59.9574 94.7983 60.1889 94.9631 60.4901C95.1278 60.7884 95.2102 61.1761 95.2102 61.6534V66H93.9659V65.1051H93.9148C93.8324 65.2699 93.7088 65.4318 93.544 65.5909C93.3793 65.75 93.1676 65.8821 92.9091 65.9872C92.6506 66.0923 92.3409 66.1449 91.9801 66.1449ZM92.2571 65.1222C92.6094 65.1222 92.9105 65.0526 93.1605 64.9134C93.4134 64.7741 93.6051 64.5923 93.7358 64.3679C93.8693 64.1406 93.9361 63.8977 93.9361 63.6392V62.7955C93.8906 62.8409 93.8026 62.8835 93.6719 62.9233C93.544 62.9602 93.3977 62.9929 93.233 63.0213C93.0682 63.0469 92.9077 63.071 92.7514 63.0938C92.5952 63.1136 92.4645 63.1307 92.3594 63.1449C92.1122 63.1761 91.8864 63.2287 91.6818 63.3026C91.4801 63.3764 91.3182 63.483 91.196 63.6222C91.0767 63.7585 91.017 63.9403 91.017 64.1676C91.017 64.483 91.1335 64.7216 91.3665 64.8835C91.5994 65.0426 91.8963 65.1222 92.2571 65.1222ZM98.1815 62.1136V66H96.9073V59.4545H98.1303V60.5199H98.2113C98.3619 60.1733 98.5977 59.8949 98.9187 59.6847C99.2425 59.4744 99.6502 59.3693 100.142 59.3693C100.588 59.3693 100.978 59.4631 101.314 59.6506C101.649 59.8352 101.909 60.1108 102.093 60.4773C102.278 60.8437 102.37 61.2969 102.37 61.8366V66H101.096V61.9901C101.096 61.5156 100.973 61.1449 100.725 60.8778C100.478 60.608 100.139 60.473 99.707 60.473C99.4116 60.473 99.1488 60.5369 98.9187 60.6648C98.6914 60.7926 98.511 60.9801 98.3775 61.2273C98.2468 61.4716 98.1815 61.767 98.1815 62.1136ZM106.529 66.1278C106.001 66.1278 105.529 65.9929 105.115 65.723C104.703 65.4503 104.379 65.0625 104.143 64.5597C103.91 64.054 103.794 63.4474 103.794 62.7401C103.794 62.0327 103.912 61.4276 104.147 60.9247C104.386 60.4219 104.713 60.0369 105.127 59.7699C105.542 59.5028 106.012 59.3693 106.538 59.3693C106.944 59.3693 107.271 59.4375 107.518 59.5739C107.768 59.7074 107.961 59.8636 108.098 60.0426C108.237 60.2216 108.345 60.3793 108.422 60.5156H108.498V57.2727H109.772V66H108.528V64.9815H108.422C108.345 65.1207 108.234 65.2798 108.089 65.4588C107.947 65.6378 107.751 65.794 107.501 65.9276C107.251 66.0611 106.927 66.1278 106.529 66.1278ZM106.811 65.0412C107.177 65.0412 107.487 64.9446 107.74 64.7514C107.995 64.5554 108.189 64.2841 108.319 63.9375C108.453 63.5909 108.52 63.1875 108.52 62.7273C108.52 62.2727 108.454 61.875 108.324 61.5341C108.193 61.1932 108.001 60.9276 107.748 60.7372C107.495 60.5469 107.183 60.4517 106.811 60.4517C106.427 60.4517 106.108 60.5511 105.852 60.75C105.596 60.9489 105.403 61.2202 105.272 61.5639C105.145 61.9077 105.081 62.2955 105.081 62.7273C105.081 63.1648 105.146 63.5582 105.277 63.9077C105.407 64.2571 105.6 64.5341 105.856 64.7386C106.115 64.9403 106.433 65.0412 106.811 65.0412ZM113.496 66.1449C113.081 66.1449 112.706 66.0682 112.371 65.9148C112.036 65.7585 111.77 65.5327 111.574 65.2372C111.381 64.9418 111.284 64.5795 111.284 64.1506C111.284 63.7812 111.355 63.4773 111.497 63.2386C111.639 63 111.831 62.8111 112.072 62.6719C112.314 62.5327 112.584 62.4276 112.882 62.3565C113.18 62.2855 113.484 62.2315 113.794 62.1946C114.186 62.1491 114.504 62.1122 114.749 62.0838C114.993 62.0526 115.17 62.0028 115.281 61.9347C115.392 61.8665 115.447 61.7557 115.447 61.6023V61.5724C115.447 61.2003 115.342 60.9119 115.132 60.7074C114.925 60.5028 114.615 60.4006 114.203 60.4006C113.774 60.4006 113.436 60.4957 113.189 60.6861C112.945 60.8736 112.776 61.0824 112.682 61.3125L111.484 61.0398C111.626 60.642 111.834 60.321 112.107 60.0767C112.382 59.8295 112.699 59.6506 113.057 59.5398C113.415 59.4261 113.791 59.3693 114.186 59.3693C114.447 59.3693 114.724 59.4006 115.017 59.4631C115.313 59.5227 115.588 59.6335 115.844 59.7955C116.102 59.9574 116.314 60.1889 116.479 60.4901C116.643 60.7884 116.726 61.1761 116.726 61.6534V66H115.482V65.1051H115.43C115.348 65.2699 115.224 65.4318 115.06 65.5909C114.895 65.75 114.683 65.8821 114.425 65.9872C114.166 66.0923 113.857 66.1449 113.496 66.1449ZM113.773 65.1222C114.125 65.1222 114.426 65.0526 114.676 64.9134C114.929 64.7741 115.121 64.5923 115.251 64.3679C115.385 64.1406 115.452 63.8977 115.452 63.6392V62.7955C115.406 62.8409 115.318 62.8835 115.188 62.9233C115.06 62.9602 114.913 62.9929 114.749 63.0213C114.584 63.0469 114.423 63.071 114.267 63.0938C114.111 63.1136 113.98 63.1307 113.875 63.1449C113.628 63.1761 113.402 63.2287 113.197 63.3026C112.996 63.3764 112.834 63.483 112.712 63.6222C112.592 63.7585 112.533 63.9403 112.533 64.1676C112.533 64.483 112.649 64.7216 112.882 64.8835C113.115 65.0426 113.412 65.1222 113.773 65.1222ZM118.423 68.4545V59.4545H119.667V60.5156H119.774C119.848 60.3793 119.954 60.2216 120.093 60.0426C120.233 59.8636 120.426 59.7074 120.673 59.5739C120.92 59.4375 121.247 59.3693 121.653 59.3693C122.181 59.3693 122.653 59.5028 123.068 59.7699C123.483 60.0369 123.808 60.4219 124.044 60.9247C124.282 61.4276 124.402 62.0327 124.402 62.7401C124.402 63.4474 124.284 64.054 124.048 64.5597C123.812 65.0625 123.488 65.4503 123.076 65.723C122.664 65.9929 122.194 66.1278 121.666 66.1278C121.268 66.1278 120.943 66.0611 120.69 65.9276C120.44 65.794 120.244 65.6378 120.102 65.4588C119.96 65.2798 119.85 65.1207 119.774 64.9815H119.697V68.4545H118.423ZM119.672 62.7273C119.672 63.1875 119.738 63.5909 119.872 63.9375C120.005 64.2841 120.199 64.5554 120.451 64.7514C120.704 64.9446 121.014 65.0412 121.38 65.0412C121.761 65.0412 122.079 64.9403 122.335 64.7386C122.591 64.5341 122.784 64.2571 122.914 63.9077C123.048 63.5582 123.115 63.1648 123.115 62.7273C123.115 62.2955 123.049 61.9077 122.919 61.5639C122.791 61.2202 122.598 60.9489 122.339 60.75C122.083 60.5511 121.764 60.4517 121.38 60.4517C121.011 60.4517 120.699 60.5469 120.443 60.7372C120.19 60.9276 119.998 61.1932 119.868 61.5341C119.737 61.875 119.672 62.2727 119.672 62.7273ZM127.734 66.1449C127.319 66.1449 126.944 66.0682 126.609 65.9148C126.274 65.7585 126.008 65.5327 125.812 65.2372C125.619 64.9418 125.522 64.5795 125.522 64.1506C125.522 63.7812 125.593 63.4773 125.735 63.2386C125.877 63 126.069 62.8111 126.311 62.6719C126.552 62.5327 126.822 62.4276 127.12 62.3565C127.419 62.2855 127.723 62.2315 128.032 62.1946C128.424 62.1491 128.743 62.1122 128.987 62.0838C129.231 62.0526 129.409 62.0028 129.52 61.9347C129.63 61.8665 129.686 61.7557 129.686 61.6023V61.5724C129.686 61.2003 129.581 60.9119 129.37 60.7074C129.163 60.5028 128.853 60.4006 128.441 60.4006C128.012 60.4006 127.674 60.4957 127.427 60.6861C127.183 60.8736 127.014 61.0824 126.92 61.3125L125.723 61.0398C125.865 60.642 126.072 60.321 126.345 60.0767C126.62 59.8295 126.937 59.6506 127.295 59.5398C127.653 59.4261 128.029 59.3693 128.424 59.3693C128.686 59.3693 128.963 59.4006 129.255 59.4631C129.551 59.5227 129.826 59.6335 130.082 59.7955C130.341 59.9574 130.552 60.1889 130.717 60.4901C130.882 60.7884 130.964 61.1761 130.964 61.6534V66H129.72V65.1051H129.669C129.586 65.2699 129.463 65.4318 129.298 65.5909C129.133 65.75 128.922 65.8821 128.663 65.9872C128.404 66.0923 128.095 66.1449 127.734 66.1449ZM128.011 65.1222C128.363 65.1222 128.664 65.0526 128.914 64.9134C129.167 64.7741 129.359 64.5923 129.49 64.3679C129.623 64.1406 129.69 63.8977 129.69 63.6392V62.7955C129.645 62.8409 129.556 62.8835 129.426 62.9233C129.298 62.9602 129.152 62.9929 128.987 63.0213C128.822 63.0469 128.662 63.071 128.505 63.0938C128.349 63.1136 128.218 63.1307 128.113 63.1449C127.866 63.1761 127.64 63.2287 127.436 63.3026C127.234 63.3764 127.072 63.483 126.95 63.6222C126.831 63.7585 126.771 63.9403 126.771 64.1676C126.771 64.483 126.887 64.7216 127.12 64.8835C127.353 65.0426 127.65 65.1222 128.011 65.1222ZM133.935 62.1136V66H132.661V59.4545H133.884V60.5199H133.965C134.116 60.1733 134.352 59.8949 134.673 59.6847C134.996 59.4744 135.404 59.3693 135.896 59.3693C136.342 59.3693 136.732 59.4631 137.067 59.6506C137.403 59.8352 137.663 60.1108 137.847 60.4773C138.032 60.8437 138.124 61.2969 138.124 61.8366V66H136.85V61.9901C136.85 61.5156 136.727 61.1449 136.479 60.8778C136.232 60.608 135.893 60.473 135.461 60.473C135.165 60.473 134.903 60.5369 134.673 60.6648C134.445 60.7926 134.265 60.9801 134.131 61.2273C134.001 61.4716 133.935 61.767 133.935 62.1136ZM142.283 66.1278C141.755 66.1278 141.283 65.9929 140.869 65.723C140.457 65.4503 140.133 65.0625 139.897 64.5597C139.664 64.054 139.548 63.4474 139.548 62.7401C139.548 62.0327 139.665 61.4276 139.901 60.9247C140.14 60.4219 140.467 60.0369 140.881 59.7699C141.296 59.5028 141.766 59.3693 142.292 59.3693C142.698 59.3693 143.025 59.4375 143.272 59.5739C143.522 59.7074 143.715 59.8636 143.852 60.0426C143.991 60.2216 144.099 60.3793 144.175 60.5156H144.252V57.2727H145.526V66H144.282V64.9815H144.175C144.099 65.1207 143.988 65.2798 143.843 65.4588C143.701 65.6378 143.505 65.794 143.255 65.9276C143.005 66.0611 142.681 66.1278 142.283 66.1278ZM142.565 65.0412C142.931 65.0412 143.241 64.9446 143.494 64.7514C143.749 64.5554 143.942 64.2841 144.073 63.9375C144.207 63.5909 144.273 63.1875 144.273 62.7273C144.273 62.2727 144.208 61.875 144.077 61.5341C143.947 61.1932 143.755 60.9276 143.502 60.7372C143.249 60.5469 142.937 60.4517 142.565 60.4517C142.181 60.4517 141.862 60.5511 141.606 60.75C141.35 60.9489 141.157 61.2202 141.026 61.5639C140.898 61.9077 140.835 62.2955 140.835 62.7273C140.835 63.1648 140.9 63.5582 141.031 63.9077C141.161 64.2571 141.354 64.5341 141.61 64.7386C141.869 64.9403 142.187 65.0412 142.565 65.0412ZM149.25 66.1449C148.835 66.1449 148.46 66.0682 148.125 65.9148C147.789 65.7585 147.524 65.5327 147.328 65.2372C147.135 64.9418 147.038 64.5795 147.038 64.1506C147.038 63.7812 147.109 63.4773 147.251 63.2386C147.393 63 147.585 62.8111 147.826 62.6719C148.068 62.5327 148.338 62.4276 148.636 62.3565C148.934 62.2855 149.238 62.2315 149.548 62.1946C149.94 62.1491 150.258 62.1122 150.502 62.0838C150.747 62.0526 150.924 62.0028 151.035 61.9347C151.146 61.8665 151.201 61.7557 151.201 61.6023V61.5724C151.201 61.2003 151.096 60.9119 150.886 60.7074C150.679 60.5028 150.369 60.4006 149.957 60.4006C149.528 60.4006 149.19 60.4957 148.943 60.6861C148.699 60.8736 148.529 61.0824 148.436 61.3125L147.238 61.0398C147.38 60.642 147.588 60.321 147.86 60.0767C148.136 59.8295 148.453 59.6506 148.811 59.5398C149.169 59.4261 149.545 59.3693 149.94 59.3693C150.201 59.3693 150.478 59.4006 150.771 59.4631C151.066 59.5227 151.342 59.6335 151.598 59.7955C151.856 59.9574 152.068 60.1889 152.233 60.4901C152.397 60.7884 152.48 61.1761 152.48 61.6534V66H151.235V65.1051H151.184C151.102 65.2699 150.978 65.4318 150.814 65.5909C150.649 65.75 150.437 65.8821 150.179 65.9872C149.92 66.0923 149.61 66.1449 149.25 66.1449ZM149.527 65.1222C149.879 65.1222 150.18 65.0526 150.43 64.9134C150.683 64.7741 150.875 64.5923 151.005 64.3679C151.139 64.1406 151.206 63.8977 151.206 63.6392V62.7955C151.16 62.8409 151.072 62.8835 150.941 62.9233C150.814 62.9602 150.667 62.9929 150.502 63.0213C150.338 63.0469 150.177 63.071 150.021 63.0938C149.865 63.1136 149.734 63.1307 149.629 63.1449C149.382 63.1761 149.156 63.2287 148.951 63.3026C148.75 63.3764 148.588 63.483 148.466 63.6222C148.346 63.7585 148.287 63.9403 148.287 64.1676C148.287 64.483 148.403 64.7216 148.636 64.8835C148.869 65.0426 149.166 65.1222 149.527 65.1222ZM159.431 68.3736C158.55 68.3736 157.769 68.2528 157.087 68.0114C156.408 67.7727 155.836 67.4205 155.37 66.9545C154.904 66.4915 154.55 65.9233 154.309 65.25C154.067 64.5767 153.947 63.8082 153.947 62.9446C153.947 62.1037 154.069 61.348 154.313 60.6776C154.558 60.0071 154.913 59.4361 155.379 58.9645C155.847 58.4901 156.417 58.1278 157.087 57.8778C157.758 57.6278 158.519 57.5028 159.371 57.5028C160.187 57.5028 160.906 57.6307 161.528 57.8864C162.15 58.142 162.673 58.4929 163.096 58.9389C163.522 59.3849 163.843 59.8963 164.059 60.473C164.275 61.0497 164.383 61.6591 164.383 62.3011C164.383 62.75 164.354 63.1889 164.298 63.6179C164.241 64.044 164.136 64.4304 163.982 64.777C163.832 65.1207 163.613 65.3963 163.326 65.6037C163.042 65.8082 162.673 65.9148 162.218 65.9233C161.977 65.9318 161.742 65.9034 161.515 65.8381C161.288 65.7727 161.094 65.6676 160.935 65.5227C160.776 65.375 160.68 65.1875 160.646 64.9602H160.594C160.526 65.1278 160.413 65.2841 160.254 65.429C160.094 65.571 159.891 65.6847 159.644 65.7699C159.4 65.8523 159.116 65.8864 158.792 65.8722C158.434 65.858 158.112 65.777 157.825 65.6293C157.538 65.4815 157.292 65.277 157.087 65.0156C156.886 64.7543 156.731 64.4446 156.623 64.0866C156.515 63.7287 156.461 63.331 156.461 62.8935C156.461 62.473 156.522 62.0966 156.644 61.7642C156.766 61.429 156.933 61.1406 157.143 60.8991C157.356 60.6548 157.6 60.4616 157.876 60.3196C158.151 60.1776 158.442 60.0881 158.749 60.0511C159.048 60.017 159.322 60.0256 159.572 60.0767C159.822 60.1278 160.029 60.206 160.194 60.3111C160.362 60.4162 160.467 60.5312 160.509 60.6562H160.565V60.179H161.613V64.1335C161.613 64.358 161.671 64.5483 161.788 64.7045C161.907 64.8608 162.076 64.9389 162.295 64.9389C162.553 64.9389 162.755 64.8437 162.9 64.6534C163.048 64.4631 163.151 64.1705 163.211 63.7756C163.273 63.3807 163.305 62.875 163.305 62.2585C163.305 61.8267 163.246 61.4205 163.13 61.0398C163.016 60.6562 162.847 60.3097 162.623 60C162.401 59.6875 162.129 59.419 161.805 59.1946C161.481 58.9702 161.112 58.7969 160.697 58.6747C160.285 58.5526 159.829 58.4915 159.329 58.4915C158.65 58.4915 158.046 58.5966 157.518 58.8068C156.989 59.0142 156.543 59.3139 156.18 59.706C155.819 60.098 155.545 60.5682 155.357 61.1165C155.173 61.6619 155.08 62.2741 155.08 62.9531C155.08 63.6605 155.175 64.2884 155.366 64.8366C155.556 65.3821 155.837 65.8423 156.21 66.2173C156.582 66.5923 157.042 66.8764 157.59 67.0696C158.138 67.2656 158.771 67.3636 159.487 67.3636C159.805 67.3636 160.117 67.3352 160.424 67.2784C160.731 67.2244 161.004 67.1619 161.242 67.0909C161.484 67.0227 161.664 66.9673 161.783 66.9247L162.082 67.858C161.906 67.9403 161.671 68.0213 161.379 68.1009C161.089 68.1804 160.773 68.2457 160.433 68.2969C160.094 68.348 159.761 68.3736 159.431 68.3736ZM159.039 64.8281C159.408 64.8281 159.705 64.7543 159.93 64.6065C160.157 64.4588 160.32 64.2386 160.42 63.946C160.522 63.6506 160.573 63.2812 160.573 62.8381C160.57 62.4062 160.515 62.0625 160.407 61.8068C160.302 61.5483 160.137 61.3636 159.913 61.2528C159.691 61.1392 159.406 61.0824 159.056 61.0824C158.735 61.0824 158.461 61.1605 158.234 61.3168C158.009 61.473 157.837 61.6847 157.718 61.9517C157.602 62.2187 157.542 62.5156 157.539 62.8423C157.542 63.1861 157.59 63.5099 157.684 63.8139C157.781 64.1151 157.937 64.3594 158.153 64.5469C158.371 64.7344 158.667 64.8281 159.039 64.8281ZM168.846 59.4545V60.4773H165.27V59.4545H168.846ZM166.229 57.8864H167.503V64.0781C167.503 64.3253 167.54 64.5114 167.614 64.6364C167.688 64.7585 167.783 64.8423 167.9 64.8878C168.019 64.9304 168.148 64.9517 168.287 64.9517C168.39 64.9517 168.479 64.9446 168.556 64.9304C168.632 64.9162 168.692 64.9048 168.735 64.8963L168.965 65.9489C168.891 65.9773 168.786 66.0057 168.65 66.0341C168.513 66.0653 168.343 66.0824 168.138 66.0852C167.803 66.0909 167.49 66.0312 167.201 65.9062C166.911 65.7812 166.676 65.5881 166.498 65.3267C166.319 65.0653 166.229 64.7372 166.229 64.3423V57.8864ZM171.06 68.4545C170.87 68.4545 170.697 68.4389 170.54 68.4077C170.384 68.3793 170.268 68.348 170.191 68.3139L170.498 67.2699C170.731 67.3324 170.938 67.3594 171.12 67.3509C171.302 67.3423 171.462 67.2741 171.602 67.1463C171.744 67.0185 171.869 66.8097 171.977 66.5199L172.134 66.0852L169.739 59.4545H171.103L172.761 64.5341H172.829L174.487 59.4545H175.854L173.157 66.8736C173.032 67.2145 172.873 67.5028 172.68 67.7386C172.487 67.9773 172.256 68.1563 171.989 68.2756C171.722 68.3949 171.413 68.4545 171.06 68.4545ZM177.052 68.4545V59.4545H178.296V60.5156H178.403C178.477 60.3793 178.583 60.2216 178.722 60.0426C178.862 59.8636 179.055 59.7074 179.302 59.5739C179.549 59.4375 179.876 59.3693 180.282 59.3693C180.81 59.3693 181.282 59.5028 181.697 59.7699C182.112 60.0369 182.437 60.4219 182.673 60.9247C182.911 61.4276 183.031 62.0327 183.031 62.7401C183.031 63.4474 182.913 64.054 182.677 64.5597C182.441 65.0625 182.117 65.4503 181.705 65.723C181.293 65.9929 180.823 66.1278 180.295 66.1278C179.897 66.1278 179.572 66.0611 179.319 65.9276C179.069 65.794 178.873 65.6378 178.731 65.4588C178.589 65.2798 178.479 65.1207 178.403 64.9815H178.326V68.4545H177.052ZM178.3 62.7273C178.3 63.1875 178.367 63.5909 178.501 63.9375C178.634 64.2841 178.827 64.5554 179.08 64.7514C179.333 64.9446 179.643 65.0412 180.009 65.0412C180.39 65.0412 180.708 64.9403 180.964 64.7386C181.219 64.5341 181.413 64.2571 181.543 63.9077C181.677 63.5582 181.744 63.1648 181.744 62.7273C181.744 62.2955 181.678 61.9077 181.548 61.5639C181.42 61.2202 181.227 60.9489 180.968 60.75C180.712 60.5511 180.393 60.4517 180.009 60.4517C179.64 60.4517 179.327 60.5469 179.072 60.7372C178.819 60.9276 178.627 61.1932 178.496 61.5341C178.366 61.875 178.3 62.2727 178.3 62.7273ZM187.215 66.1321C186.602 66.1321 186.066 65.9915 185.609 65.7102C185.151 65.429 184.796 65.0355 184.543 64.5298C184.29 64.0241 184.164 63.4332 184.164 62.7571C184.164 62.0781 184.29 61.4844 184.543 60.9759C184.796 60.4673 185.151 60.0724 185.609 59.7912C186.066 59.5099 186.602 59.3693 187.215 59.3693C187.829 59.3693 188.364 59.5099 188.822 59.7912C189.279 60.0724 189.634 60.4673 189.887 60.9759C190.14 61.4844 190.266 62.0781 190.266 62.7571C190.266 63.4332 190.14 64.0241 189.887 64.5298C189.634 65.0355 189.279 65.429 188.822 65.7102C188.364 65.9915 187.829 66.1321 187.215 66.1321ZM187.219 65.0625C187.617 65.0625 187.947 64.9574 188.208 64.7472C188.469 64.5369 188.663 64.2571 188.788 63.9077C188.915 63.5582 188.979 63.1733 188.979 62.7528C188.979 62.3352 188.915 61.9517 188.788 61.6023C188.663 61.25 188.469 60.9673 188.208 60.7543C187.947 60.5412 187.617 60.4347 187.219 60.4347C186.819 60.4347 186.487 60.5412 186.222 60.7543C185.961 60.9673 185.766 61.25 185.638 61.6023C185.513 61.9517 185.451 62.3352 185.451 62.7528C185.451 63.1733 185.513 63.5582 185.638 63.9077C185.766 64.2571 185.961 64.5369 186.222 64.7472C186.487 64.9574 186.819 65.0625 187.219 65.0625ZM192.528 66.081C192.295 66.081 192.095 65.9986 191.927 65.8338C191.76 65.6662 191.676 65.4645 191.676 65.2287C191.676 64.9957 191.76 64.7969 191.927 64.6321C192.095 64.4645 192.295 64.3807 192.528 64.3807C192.761 64.3807 192.961 64.4645 193.129 64.6321C193.297 64.7969 193.38 64.9957 193.38 65.2287C193.38 65.3849 193.341 65.5284 193.261 65.6591C193.184 65.7869 193.082 65.8892 192.954 65.9659C192.826 66.0426 192.684 66.081 192.528 66.081ZM195.189 66V57.2727H196.463V60.5156H196.54C196.614 60.3793 196.721 60.2216 196.86 60.0426C196.999 59.8636 197.192 59.7074 197.439 59.5739C197.686 59.4375 198.013 59.3693 198.419 59.3693C198.948 59.3693 199.419 59.5028 199.834 59.7699C200.249 60.0369 200.574 60.4219 200.81 60.9247C201.049 61.4276 201.168 62.0327 201.168 62.7401C201.168 63.4474 201.05 64.054 200.814 64.5597C200.578 65.0625 200.255 65.4503 199.843 65.723C199.431 65.9929 198.961 66.1278 198.432 66.1278C198.034 66.1278 197.709 66.0611 197.456 65.9276C197.206 65.794 197.01 65.6378 196.868 65.4588C196.726 65.2798 196.617 65.1207 196.54 64.9815H196.434V66H195.189ZM196.438 62.7273C196.438 63.1875 196.505 63.5909 196.638 63.9375C196.772 64.2841 196.965 64.5554 197.218 64.7514C197.471 64.9446 197.78 65.0412 198.147 65.0412C198.527 65.0412 198.846 64.9403 199.101 64.7386C199.357 64.5341 199.55 64.2571 199.681 63.9077C199.814 63.5582 199.881 63.1648 199.881 62.7273C199.881 62.2955 199.816 61.9077 199.685 61.5639C199.557 61.2202 199.364 60.9489 199.105 60.75C198.85 60.5511 198.53 60.4517 198.147 60.4517C197.777 60.4517 197.465 60.5469 197.209 60.7372C196.956 60.9276 196.765 61.1932 196.634 61.5341C196.503 61.875 196.438 62.2727 196.438 62.7273ZM203.181 68.4545C202.991 68.4545 202.818 68.4389 202.662 68.4077C202.505 68.3793 202.389 68.348 202.312 68.3139L202.619 67.2699C202.852 67.3324 203.059 67.3594 203.241 67.3509C203.423 67.3423 203.583 67.2741 203.723 67.1463C203.865 67.0185 203.99 66.8097 204.098 66.5199L204.255 66.0852L201.86 59.4545H203.224L204.882 64.5341H204.95L206.608 59.4545H207.975L205.278 66.8736C205.153 67.2145 204.994 67.5028 204.801 67.7386C204.608 67.9773 204.377 68.1563 204.11 68.2756C203.843 68.3949 203.534 68.4545 203.181 68.4545Z" fill="black"/>
<g opacity="0.5">
<path d="M329.666 38.6667L325 43.3334L320.333 38.6667" stroke="black" stroke-width="1.5" stroke-linecap="round" stroke-linejoin="round"/>
</g>
</svg>
